<?xml version="1.0" encoding="utf-8"?>
<!-- Generator: Adobe Illustrator 18.1.1, SVG Export Plug-In . SVG Version: 6.00 Build 0)  -->
<svg version="1.1" id="Layer_1" xmlns="http://www.w3.org/2000/svg" xmlns:xlink="http://www.w3.org/1999/xlink" x="0px" y="0px"
	 viewBox="-345 223.3 150 150" enable-background="new -345 223.3 150 150" xml:space="preserve">
<path fill="none" stroke="#000000" stroke-width="7" stroke-linecap="round" stroke-linejoin="round" stroke-miterlimit="10" d="
	M-287.3,321.2h-12c-12,0-21.8-9.8-21.8-21.8c0-12,9.8-21.8,21.8-21.8c0-12,9.8-21.8,21.8-21.8c12,0,21.8,9.8,21.8,21.8"/>
<g>
	<g>
		<path fill="#FFDA00" d="M-255.7,326.2c-2.8,0-5-2.2-5-5s2.2-5,5-5c9.3,0,16.8-7.5,16.8-16.8c0-9.3-7.5-16.8-16.8-16.8
			s-16.8,7.5-16.8,16.8c0,2.8-2.2,5-5,5s-5-2.2-5-5c0-14.8,12-26.8,26.8-26.8c14.8,0,26.8,12,26.8,26.8
			C-228.9,314.2-241,326.2-255.7,326.2z"/>
		<path fill="#FFFFFF" d="M-255.7,274.1c13.9,0,25.3,11.3,25.3,25.3c0,13.9-11.3,25.3-25.3,25.3c-1.9,0-3.5-1.6-3.5-3.5
			c0-1.9,1.6-3.5,3.5-3.5c10.1,0,18.3-8.2,18.3-18.3s-8.2-18.3-18.3-18.3c-10.1,0-18.3,8.2-18.3,18.3c0,1.9-1.6,3.5-3.5,3.5
			s-3.5-1.6-3.5-3.5C-281,285.5-269.7,274.1-255.7,274.1 M-255.7,271.1c-15.6,0-28.3,12.7-28.3,28.3c0,3.6,2.9,6.5,6.5,6.5
			s6.5-2.9,6.5-6.5c0-8.4,6.9-15.3,15.3-15.3c8.4,0,15.3,6.9,15.3,15.3c0,8.4-6.9,15.3-15.3,15.3c-3.6,0-6.5,2.9-6.5,6.5
			s2.9,6.5,6.5,6.5c15.6,0,28.3-12.7,28.3-28.3C-227.4,283.8-240.1,271.1-255.7,271.1L-255.7,271.1z"/>
	</g>
</g>
<path fill="none" stroke="#000000" stroke-width="7" stroke-linecap="round" stroke-linejoin="round" stroke-miterlimit="10" d="
	M-255.7,321.2c0-12-9.8-21.8-21.8-21.8h-21.8"/>
<line fill="#FFDA01" stroke="#FFD400" stroke-width="7" stroke-linecap="round" stroke-linejoin="round" stroke-miterlimit="10" x1="-224.4" y1="268.1" x2="-232" y2="275.7"/>
<line fill="#FFDA01" stroke="#FFD400" stroke-width="7" stroke-linecap="round" stroke-linejoin="round" stroke-miterlimit="10" x1="-211.5" y1="299.4" x2="-222.2" y2="299.4"/>
<path fill="none" stroke="#000000" stroke-width="7" stroke-linecap="round" stroke-linejoin="round" stroke-miterlimit="10" d="
	M-279.4,275.7"/>
<path fill="none" stroke="#000000" stroke-width="7" stroke-linecap="round" stroke-linejoin="round" stroke-miterlimit="10" d="
	M-232,323.1"/>
<line fill="none" stroke="#FFD400" stroke-width="7" stroke-linecap="round" stroke-linejoin="round" stroke-miterlimit="10" x1="-224.4" y1="330.7" x2="-232" y2="323.1"/>
</svg>
