<?xml version="1.0" encoding="utf-8"?>
<!-- Generator: Adobe Illustrator 18.1.1, SVG Export Plug-In . SVG Version: 6.00 Build 0)  -->
<svg version="1.1" id="Layer_1" xmlns="http://www.w3.org/2000/svg" xmlns:xlink="http://www.w3.org/1999/xlink" x="0px" y="0px"
	 viewBox="-345 223.3 150 150" enable-background="new -345 223.3 150 150" xml:space="preserve">
<path fill="none" stroke="#000000" stroke-width="7" stroke-linecap="round" stroke-linejoin="round" stroke-miterlimit="10" d="
	M-297.1,350.3h-15.6c-15.6,0-28.3-12.7-28.3-28.3c0-15.6,12.7-28.3,28.3-28.3c0-15.6,12.7-28.3,28.3-28.3
	c15.6,0,28.3,12.7,28.3,28.3"/>
<g>
	<g>
		<path fill="#FFDA00" d="M-256.1,356.4c-3.3,0-6-2.7-6-6s2.7-6,6-6c12.3,0,22.3-10,22.3-22.3c0-12.3-10-22.3-22.3-22.3
			s-22.3,10-22.3,22.3c0,3.3-2.7,6-6,6s-6-2.7-6-6c0-18.9,15.4-34.4,34.4-34.4c18.9,0,34.4,15.4,34.4,34.4
			C-221.7,341-237.1,356.4-256.1,356.4z"/>
		<path fill="#FFFFFF" d="M-256.1,289.2c18.1,0,32.9,14.7,32.9,32.9c0,18.1-14.7,32.9-32.9,32.9c-2.5,0-4.5-2-4.5-4.5
			c0-2.5,2-4.5,4.5-4.5c13.1,0,23.8-10.7,23.8-23.8s-10.7-23.8-23.8-23.8c-13.1,0-23.8,10.7-23.8,23.8c0,2.5-2,4.5-4.5,4.5
			s-4.5-2-4.5-4.5C-288.9,303.9-274.2,289.2-256.1,289.2 M-256.1,286.2c-19.8,0-35.9,16.1-35.9,35.9c0,4.2,3.4,7.5,7.5,7.5
			s7.5-3.4,7.5-7.5c0-11.4,9.3-20.8,20.8-20.8c11.4,0,20.8,9.3,20.8,20.8c0,11.4-9.3,20.8-20.8,20.8c-4.2,0-7.5,3.4-7.5,7.5
			s3.4,7.5,7.5,7.5c19.8,0,35.9-16.1,35.9-35.9C-220.2,302.3-236.3,286.2-256.1,286.2L-256.1,286.2z"/>
	</g>
</g>
<path fill="none" stroke="#000000" stroke-width="7" stroke-linecap="round" stroke-linejoin="round" stroke-miterlimit="10" d="
	M-256.1,350.3c0-15.6-12.7-28.3-28.3-28.3h-28.3"/>
<line fill="#FFDA01" stroke="#FFD400" stroke-width="7" stroke-linecap="round" stroke-linejoin="round" stroke-miterlimit="10" x1="-215.4" y1="281.4" x2="-225.3" y2="291.2"/>
<line fill="#FFDA01" stroke="#FFD400" stroke-width="7" stroke-linecap="round" stroke-linejoin="round" stroke-miterlimit="10" x1="-198.6" y1="322" x2="-212.5" y2="322"/>
<path fill="none" stroke="#000000" stroke-width="7" stroke-linecap="round" stroke-linejoin="round" stroke-miterlimit="10" d="
	M-286.9,291.2"/>
<path fill="none" stroke="#000000" stroke-width="7" stroke-linecap="round" stroke-linejoin="round" stroke-miterlimit="10" d="
	M-225.3,352.8"/>
<line fill="none" stroke="#FFD400" stroke-width="7" stroke-linecap="round" stroke-linejoin="round" stroke-miterlimit="10" x1="-215.4" y1="362.7" x2="-225.3" y2="352.8"/>
</svg>
