<?xml version="1.0" encoding="utf-8"?>
<!-- Generator: Adobe Illustrator 16.0.0, SVG Export Plug-In . SVG Version: 6.00 Build 0)  -->
<!DOCTYPE svg PUBLIC "-//W3C//DTD SVG 1.1//EN" "http://www.w3.org/Graphics/SVG/1.1/DTD/svg11.dtd">
<svg version="1.1" id="Layer_1" xmlns="http://www.w3.org/2000/svg" xmlns:xlink="http://www.w3.org/1999/xlink" x="0px" y="0px"
	 width="150px" height="150px" viewBox="0 0 150 150" enable-background="new 0 0 150 150" xml:space="preserve">
<g>
	<g>
		<path d="M20.193,76.351c-1.933,0-3.5-1.566-3.5-3.5c0-12.827,9.602-23.454,21.996-25.07c1.616-12.395,12.243-21.997,25.07-21.997
			c13.526,0,24.621,10.577,25.258,24.079c0.091,1.931-1.4,3.57-3.331,3.661c-1.915,0.092-3.569-1.4-3.661-3.331
			c-0.461-9.762-8.484-17.409-18.266-17.409c-10.082,0-18.283,8.202-18.283,18.284c0,1.933-1.567,3.5-3.5,3.5
			c-10.082,0-18.283,8.202-18.283,18.283C23.693,74.784,22.126,76.351,20.193,76.351z"/>
	</g>
	<g>
		<path fill="#FFDE00" d="M85.545,98.137c-1.933,0-3.5-1.567-3.5-3.5s1.567-3.5,3.5-3.5c10.082,0,18.285-8.203,18.285-18.286
			c0-10.082-8.203-18.283-18.285-18.283c-10.083,0-18.285,8.202-18.285,18.283c0,1.933-1.567,3.5-3.5,3.5s-3.5-1.566-3.5-3.5
			c0-13.941,11.343-25.283,25.285-25.283S110.83,58.91,110.83,72.851C110.83,86.794,99.487,98.137,85.545,98.137z"/>
	</g>
	<g>
		<path d="M85.545,98.137c-1.933,0-3.5-1.567-3.5-3.5c0-10.083-8.203-18.286-18.285-18.286H41.977c-1.933,0-3.5-1.566-3.5-3.5
			s1.567-3.5,3.5-3.5H63.76c13.942,0,25.285,11.343,25.285,25.286C89.045,96.569,87.478,98.137,85.545,98.137z"/>
	</g>
	<g>
		<g>
			<line fill="#FFDE00" x1="116.844" y1="41.553" x2="109.262" y2="49.134"/>
			<path fill="#FFDE00" d="M109.262,52.634c-0.896,0-1.792-0.342-2.475-1.025c-1.367-1.367-1.367-3.583,0-4.95l7.582-7.581
				c1.367-1.366,3.584-1.367,4.949,0c1.367,1.367,1.367,3.583,0,4.95l-7.582,7.581C111.053,52.292,110.157,52.634,109.262,52.634z"
				/>
		</g>
		<g>
			<line fill="#FFDE00" x1="129.807" y1="72.851" x2="119.086" y2="72.851"/>
			<path fill="#FFDE00" d="M129.807,76.352h-10.721c-1.933,0-3.5-1.567-3.5-3.5s1.567-3.5,3.5-3.5h10.721c1.933,0,3.5,1.567,3.5,3.5
				S131.739,76.352,129.807,76.352z"/>
		</g>
		<g>
			<path fill="#FFDE00" stroke="#FFDE00" stroke-width="7" stroke-linecap="round" stroke-miterlimit="10" d="M61.826,49.134"/>
		</g>
		<g>
			<path fill="#FFDE00" stroke="#FFDE00" stroke-width="7" stroke-linecap="round" stroke-miterlimit="10" d="M109.262,96.57"/>
		</g>
		<g>
			<line fill="#FFDE00" x1="116.844" y1="104.152" x2="109.262" y2="96.57"/>
			<path fill="#FFDE00" d="M116.844,107.652c-0.896,0-1.791-0.342-2.475-1.025l-7.582-7.582c-1.367-1.366-1.367-3.583,0-4.949
				c1.367-1.367,3.582-1.367,4.949,0l7.582,7.582c1.367,1.366,1.367,3.583,0,4.949C118.635,107.311,117.739,107.652,116.844,107.652
				z"/>
		</g>
	</g>
	<g>
		<line fill="#FFDE00" x1="28.746" y1="94.637" x2="28.746" y2="112.023"/>
		<path fill="#00B1FF" d="M28.746,115.523c-1.933,0-3.5-1.567-3.5-3.5V94.637c0-1.933,1.567-3.5,3.5-3.5s3.5,1.567,3.5,3.5v17.387
			C32.246,113.956,30.679,115.523,28.746,115.523z"/>
	</g>
	<g>
		<line fill="#FFDE00" x1="46.255" y1="103.33" x2="46.253" y2="120.717"/>
		<path fill="#00B1FF" d="M46.253,124.217C46.253,124.217,46.253,124.217,46.253,124.217c-1.934,0-3.5-1.567-3.5-3.5l0.002-17.387
			c0-1.934,1.567-3.5,3.5-3.5c0,0,0,0,0,0c1.933,0,3.5,1.567,3.5,3.5l-0.002,17.387C49.753,122.65,48.186,124.217,46.253,124.217z"
			/>
	</g>
	<g>
		<line fill="#FFDE00" x1="63.762" y1="94.637" x2="63.76" y2="112.023"/>
		<path fill="#00B1FF" d="M63.76,115.523C63.76,115.523,63.76,115.523,63.76,115.523c-1.934,0-3.5-1.567-3.5-3.5l0.002-17.387
			c0-1.934,1.567-3.5,3.5-3.5c0,0,0,0,0,0c1.933,0,3.5,1.567,3.5,3.5l-0.002,17.387C67.26,113.957,65.692,115.523,63.76,115.523z"/>
	</g>
</g>
</svg>
