<?xml version="1.0" encoding="utf-8"?>
<!-- Generator: Adobe Illustrator 16.0.0, SVG Export Plug-In . SVG Version: 6.00 Build 0)  -->
<!DOCTYPE svg PUBLIC "-//W3C//DTD SVG 1.1//EN" "http://www.w3.org/Graphics/SVG/1.1/DTD/svg11.dtd">
<svg version="1.1" id="Layer_1" xmlns="http://www.w3.org/2000/svg" xmlns:xlink="http://www.w3.org/1999/xlink" x="0px" y="0px"
	 width="200px" height="200px" viewBox="0 0 200 200" enable-background="new 0 0 200 200" xml:space="preserve">
<g>
	<g>
		<path d="M45.193,101.351c-1.933,0-3.5-1.566-3.5-3.5c0-12.827,9.602-23.454,21.996-25.07c1.616-12.395,12.243-21.997,25.07-21.997
			c13.526,0,24.621,10.577,25.258,24.079c0.091,1.931-1.4,3.57-3.331,3.661c-1.915,0.092-3.569-1.4-3.661-3.331
			c-0.461-9.762-8.484-17.409-18.266-17.409c-10.082,0-18.283,8.202-18.283,18.284c0,1.933-1.567,3.5-3.5,3.5
			c-10.082,0-18.283,8.202-18.283,18.283C48.693,99.784,47.126,101.351,45.193,101.351z"/>
	</g>
	<g>
		<path fill="#FFDE00" d="M110.545,123.137c-1.933,0-3.5-1.567-3.5-3.5s1.567-3.5,3.5-3.5c10.082,0,18.285-8.203,18.285-18.286
			c0-10.082-8.203-18.283-18.285-18.283c-10.083,0-18.285,8.202-18.285,18.283c0,1.933-1.567,3.5-3.5,3.5s-3.5-1.566-3.5-3.5
			c0-13.941,11.343-25.283,25.285-25.283S135.83,83.91,135.83,97.851C135.83,111.794,124.487,123.137,110.545,123.137z"/>
	</g>
	<g>
		<path d="M110.545,123.137c-1.933,0-3.5-1.567-3.5-3.5c0-10.083-8.203-18.286-18.285-18.286H66.977c-1.933,0-3.5-1.566-3.5-3.5
			s1.567-3.5,3.5-3.5H88.76c13.942,0,25.285,11.343,25.285,25.286C114.045,121.569,112.478,123.137,110.545,123.137z"/>
	</g>
	<g>
		<g>
			<line fill="#FFDE00" x1="141.844" y1="66.553" x2="134.262" y2="74.134"/>
			<path fill="#FFDE00" d="M134.262,77.634c-0.896,0-1.792-0.342-2.475-1.025c-1.367-1.367-1.367-3.583,0-4.95l7.582-7.581
				c1.367-1.366,3.584-1.367,4.949,0c1.367,1.367,1.367,3.583,0,4.95l-7.582,7.581C136.053,77.292,135.157,77.634,134.262,77.634z"
				/>
		</g>
		<g>
			<line fill="#FFDE00" x1="154.807" y1="97.851" x2="144.086" y2="97.851"/>
			<path fill="#FFDE00" d="M154.807,101.352h-10.721c-1.933,0-3.5-1.567-3.5-3.5s1.567-3.5,3.5-3.5h10.721
				c1.933,0,3.5,1.567,3.5,3.5S156.739,101.352,154.807,101.352z"/>
		</g>
		<g>
			<path fill="#FFDE00" stroke="#FFDE00" stroke-width="7" stroke-linecap="round" stroke-miterlimit="10" d="M86.826,74.134"/>
		</g>
		<g>
			<path fill="#FFDE00" stroke="#FFDE00" stroke-width="7" stroke-linecap="round" stroke-miterlimit="10" d="M134.262,121.57"/>
		</g>
		<g>
			<line fill="#FFDE00" x1="141.844" y1="129.152" x2="134.262" y2="121.57"/>
			<path fill="#FFDE00" d="M141.844,132.652c-0.896,0-1.791-0.342-2.475-1.025l-7.582-7.582c-1.367-1.366-1.367-3.583,0-4.949
				c1.367-1.367,3.582-1.367,4.949,0l7.582,7.582c1.367,1.366,1.367,3.583,0,4.949C143.635,132.311,142.739,132.652,141.844,132.652
				z"/>
		</g>
	</g>
	<g>
		<line fill="#FFDE00" x1="53.746" y1="119.637" x2="53.746" y2="137.023"/>
		<path fill="#00B1FF" d="M53.746,140.523c-1.933,0-3.5-1.567-3.5-3.5v-17.387c0-1.933,1.567-3.5,3.5-3.5s3.5,1.567,3.5,3.5v17.387
			C57.246,138.956,55.679,140.523,53.746,140.523z"/>
	</g>
	<g>
		<line fill="#FFDE00" x1="71.255" y1="128.33" x2="71.253" y2="145.717"/>
		<path fill="#00B1FF" d="M71.253,149.217C71.253,149.217,71.253,149.217,71.253,149.217c-1.934,0-3.5-1.567-3.5-3.5l0.002-17.387
			c0-1.934,1.567-3.5,3.5-3.5c0,0,0,0,0,0c1.933,0,3.5,1.567,3.5,3.5l-0.002,17.387C74.753,147.65,73.186,149.217,71.253,149.217z"
			/>
	</g>
	<g>
		<line fill="#FFDE00" x1="88.762" y1="119.637" x2="88.76" y2="137.023"/>
		<path fill="#00B1FF" d="M88.76,140.523C88.76,140.523,88.76,140.523,88.76,140.523c-1.934,0-3.5-1.567-3.5-3.5l0.002-17.387
			c0-1.934,1.567-3.5,3.5-3.5c0,0,0,0,0,0c1.933,0,3.5,1.567,3.5,3.5l-0.002,17.387C92.26,138.957,90.692,140.523,88.76,140.523z"/>
	</g>
</g>
</svg>
