<?xml version="1.0" encoding="utf-8"?>
<!-- Generator: Adobe Illustrator 18.1.1, SVG Export Plug-In . SVG Version: 6.00 Build 0)  -->
<svg version="1.1" id="Layer_1" xmlns="http://www.w3.org/2000/svg" xmlns:xlink="http://www.w3.org/1999/xlink" x="0px" y="0px"
	 viewBox="-345 223.3 150 150" enable-background="new -345 223.3 150 150" xml:space="preserve">
<g display="none">
	
		<path display="inline" fill="none" stroke="#000000" stroke-width="7" stroke-linecap="round" stroke-linejoin="round" stroke-miterlimit="10" d="
		M-280.2,369.5h-16.9c-16.9,0-30.8-14-30.8-31.1c0-17.1,13.8-31.1,30.8-31.1c0-17.1,13.8-31.1,30.8-31.1c16.9,0,30.8,14,30.8,31.1"
		/>
	
		<path display="inline" fill="none" stroke="#000000" stroke-width="7" stroke-linecap="round" stroke-linejoin="round" stroke-miterlimit="10" d="
		M-235.8,369.5c16.9,0,30.8-14,30.8-31.1c0-17.1-13.8-31.1-30.8-31.1c-16.9,0-30.8,14-30.8,31.1"/>
	
		<path display="inline" fill="none" stroke="#000000" stroke-width="7" stroke-linecap="round" stroke-linejoin="round" stroke-miterlimit="10" d="
		M-297.2,369.5c-16.9,0-30.8-14-30.8-31.1c0-17.1,13.8-31.1,30.8-31.1c0-17.1,13.8-31.1,30.8-31.1c16.9,0,30.8,14,30.8,31.1"/>
</g>
<g display="none">
	<g display="inline">
		
			<line fill="none" stroke="#FFDE00" stroke-width="7" stroke-linecap="round" stroke-linejoin="round" stroke-miterlimit="10" x1="-234.4" y1="355.5" x2="-242.4" y2="347.6"/>
		
			<line fill="none" stroke="#FFDE00" stroke-width="7" stroke-linecap="round" stroke-linejoin="round" stroke-miterlimit="10" x1="-267.6" y1="275.6" x2="-267.6" y2="286.9"/>
		
			<line fill="none" stroke="#FFDE00" stroke-width="7" stroke-linecap="round" stroke-linejoin="round" stroke-miterlimit="10" x1="-234.4" y1="289.3" x2="-242.4" y2="297.3"/>
		<path fill="none" stroke="#FFDE00" stroke-width="7" stroke-linecap="round" stroke-linejoin="round" stroke-miterlimit="10" d="
			M-303,322.4"/>
		<path fill="none" stroke="#FFDE00" stroke-width="7" stroke-linecap="round" stroke-linejoin="round" stroke-miterlimit="10" d="
			M-232,322.4"/>
		
			<line fill="none" stroke="#FFDE00" stroke-width="7" stroke-linecap="round" stroke-linejoin="round" stroke-miterlimit="10" x1="-220.7" y1="322.4" x2="-232" y2="322.4"/>
	</g>
	<g display="inline">
		
			<line fill="none" stroke="#FFDE00" stroke-width="7" stroke-linecap="round" stroke-linejoin="round" stroke-miterlimit="10" x1="-300.7" y1="289.3" x2="-292.7" y2="297.3"/>
		
			<line fill="none" stroke="#FFDE00" stroke-width="7" stroke-linecap="round" stroke-linejoin="round" stroke-miterlimit="10" x1="-267.6" y1="369.3" x2="-267.6" y2="358"/>
		
			<line fill="none" stroke="#FFDE00" stroke-width="7" stroke-linecap="round" stroke-linejoin="round" stroke-miterlimit="10" x1="-300.7" y1="355.5" x2="-292.7" y2="347.6"/>
		<path fill="none" stroke="#FFDE00" stroke-width="7" stroke-linecap="round" stroke-linejoin="round" stroke-miterlimit="10" d="
			M-232,322.4"/>
		<path fill="none" stroke="#FFDE00" stroke-width="7" stroke-linecap="round" stroke-linejoin="round" stroke-miterlimit="10" d="
			M-303,322.4"/>
		
			<line fill="none" stroke="#FFDE00" stroke-width="7" stroke-linecap="round" stroke-linejoin="round" stroke-miterlimit="10" x1="-314.4" y1="322.4" x2="-303" y2="322.4"/>
	</g>
	
		<circle display="inline" fill="none" stroke="#FFDE00" stroke-width="7" stroke-linecap="round" stroke-linejoin="round" stroke-miterlimit="10" cx="-267.6" cy="322.4" r="23.1"/>
</g>
<g>
	<g>
		
			<line fill="none" stroke="#FFDE00" stroke-width="7" stroke-linecap="round" stroke-linejoin="round" stroke-miterlimit="10" x1="-229.8" y1="347.6" x2="-239.4" y2="338"/>
		
			<line fill="none" stroke="#FFDE00" stroke-width="7" stroke-linecap="round" stroke-linejoin="round" stroke-miterlimit="10" x1="-269.8" y1="251.2" x2="-269.8" y2="264.9"/>
		
			<line fill="none" stroke="#FFDE00" stroke-width="7" stroke-linecap="round" stroke-linejoin="round" stroke-miterlimit="10" x1="-229.8" y1="267.7" x2="-239.4" y2="277.4"/>
		<path fill="none" stroke="#FFDE00" stroke-width="7" stroke-linecap="round" stroke-linejoin="round" stroke-miterlimit="10" d="
			M-312.5,307.6"/>
		<path fill="none" stroke="#FFDE00" stroke-width="7" stroke-linecap="round" stroke-linejoin="round" stroke-miterlimit="10" d="
			M-226.9,307.6"/>
		
			<line fill="none" stroke="#FFDE00" stroke-width="7" stroke-linecap="round" stroke-linejoin="round" stroke-miterlimit="10" x1="-213.2" y1="307.6" x2="-226.9" y2="307.6"/>
	</g>
	<g>
		
			<line fill="none" stroke="#FFDE00" stroke-width="7" stroke-linecap="round" stroke-linejoin="round" stroke-miterlimit="10" x1="-309.7" y1="267.7" x2="-300" y2="277.4"/>
		
			<line fill="none" stroke="#FFDE00" stroke-width="7" stroke-linecap="round" stroke-linejoin="round" stroke-miterlimit="10" x1="-269.8" y1="364.2" x2="-269.8" y2="350.5"/>
		
			<line fill="none" stroke="#FFDE00" stroke-width="7" stroke-linecap="round" stroke-linejoin="round" stroke-miterlimit="10" x1="-309.7" y1="347.6" x2="-300" y2="338"/>
		<path fill="none" stroke="#FFDE00" stroke-width="7" stroke-linecap="round" stroke-linejoin="round" stroke-miterlimit="10" d="
			M-226.9,307.6"/>
		<path fill="none" stroke="#FFDE00" stroke-width="7" stroke-linecap="round" stroke-linejoin="round" stroke-miterlimit="10" d="
			M-312.5,307.6"/>
		
			<line fill="none" stroke="#FFDE00" stroke-width="7" stroke-linecap="round" stroke-linejoin="round" stroke-miterlimit="10" x1="-326.2" y1="307.6" x2="-312.5" y2="307.6"/>
	</g>
	
		<circle fill="none" stroke="#FFDE00" stroke-width="7" stroke-linecap="round" stroke-linejoin="round" stroke-miterlimit="10" cx="-269.8" cy="307.6" r="27.8"/>
</g>
</svg>
