<?xml version="1.0" encoding="utf-8"?>
<!-- Generator: Adobe Illustrator 18.1.1, SVG Export Plug-In . SVG Version: 6.00 Build 0)  -->
<svg version="1.1" id="Layer_1" xmlns="http://www.w3.org/2000/svg" xmlns:xlink="http://www.w3.org/1999/xlink" x="0px" y="0px"
	 viewBox="-345 223.3 150 150" enable-background="new -345 223.3 150 150" xml:space="preserve">
<g display="none">
	
		<path display="inline" fill="none" stroke="#000000" stroke-width="7" stroke-linecap="round" stroke-linejoin="round" stroke-miterlimit="10" d="
		M-280.2,369.5h-16.9c-16.9,0-30.8-14-30.8-31.1c0-17.1,13.8-31.1,30.8-31.1c0-17.1,13.8-31.1,30.8-31.1c16.9,0,30.8,14,30.8,31.1"
		/>
	
		<path display="inline" fill="none" stroke="#000000" stroke-width="7" stroke-linecap="round" stroke-linejoin="round" stroke-miterlimit="10" d="
		M-235.8,369.5c16.9,0,30.8-14,30.8-31.1c0-17.1-13.8-31.1-30.8-31.1c-16.9,0-30.8,14-30.8,31.1"/>
	
		<path display="inline" fill="none" stroke="#000000" stroke-width="7" stroke-linecap="round" stroke-linejoin="round" stroke-miterlimit="10" d="
		M-297.2,369.5c-16.9,0-30.8-14-30.8-31.1c0-17.1,13.8-31.1,30.8-31.1c0-17.1,13.8-31.1,30.8-31.1c16.9,0,30.8,14,30.8,31.1"/>
</g>
<g display="none">
	<g display="inline">
		
			<line fill="none" stroke="#FFDE00" stroke-width="7" stroke-linecap="round" stroke-linejoin="round" stroke-miterlimit="10" x1="-234.4" y1="355.5" x2="-242.4" y2="347.6"/>
		
			<line fill="none" stroke="#FFDE00" stroke-width="7" stroke-linecap="round" stroke-linejoin="round" stroke-miterlimit="10" x1="-267.6" y1="275.6" x2="-267.6" y2="286.9"/>
		
			<line fill="none" stroke="#FFDE00" stroke-width="7" stroke-linecap="round" stroke-linejoin="round" stroke-miterlimit="10" x1="-234.4" y1="289.3" x2="-242.4" y2="297.3"/>
		<path fill="none" stroke="#FFDE00" stroke-width="7" stroke-linecap="round" stroke-linejoin="round" stroke-miterlimit="10" d="
			M-303,322.4"/>
		<path fill="none" stroke="#FFDE00" stroke-width="7" stroke-linecap="round" stroke-linejoin="round" stroke-miterlimit="10" d="
			M-232,322.4"/>
		
			<line fill="none" stroke="#FFDE00" stroke-width="7" stroke-linecap="round" stroke-linejoin="round" stroke-miterlimit="10" x1="-220.7" y1="322.4" x2="-232" y2="322.4"/>
	</g>
	<g display="inline">
		
			<line fill="none" stroke="#FFDE00" stroke-width="7" stroke-linecap="round" stroke-linejoin="round" stroke-miterlimit="10" x1="-300.7" y1="289.3" x2="-292.7" y2="297.3"/>
		
			<line fill="none" stroke="#FFDE00" stroke-width="7" stroke-linecap="round" stroke-linejoin="round" stroke-miterlimit="10" x1="-267.6" y1="369.3" x2="-267.6" y2="358"/>
		
			<line fill="none" stroke="#FFDE00" stroke-width="7" stroke-linecap="round" stroke-linejoin="round" stroke-miterlimit="10" x1="-300.7" y1="355.5" x2="-292.7" y2="347.6"/>
		<path fill="none" stroke="#FFDE00" stroke-width="7" stroke-linecap="round" stroke-linejoin="round" stroke-miterlimit="10" d="
			M-232,322.4"/>
		<path fill="none" stroke="#FFDE00" stroke-width="7" stroke-linecap="round" stroke-linejoin="round" stroke-miterlimit="10" d="
			M-303,322.4"/>
		
			<line fill="none" stroke="#FFDE00" stroke-width="7" stroke-linecap="round" stroke-linejoin="round" stroke-miterlimit="10" x1="-314.4" y1="322.4" x2="-303" y2="322.4"/>
	</g>
	
		<circle display="inline" fill="none" stroke="#FFDE00" stroke-width="7" stroke-linecap="round" stroke-linejoin="round" stroke-miterlimit="10" cx="-267.6" cy="322.4" r="23.1"/>
</g>
<g>
	<path fill="none" stroke="#000000" stroke-width="7" stroke-linecap="round" stroke-linejoin="round" stroke-miterlimit="10" d="
		M-285.4,359.5h-17.7c-17.7,0-32.3-14.7-32.3-32.7c0-18,14.5-32.7,32.3-32.7c0-18,14.5-32.7,32.3-32.7c17.7,0,32.3,14.7,32.3,32.7"
		/>
	<path fill="none" stroke="#000000" stroke-width="7" stroke-linecap="round" stroke-linejoin="round" stroke-miterlimit="10" d="
		M-238.8,359.5c17.7,0,32.3-14.7,32.3-32.7c0-18-14.5-32.7-32.3-32.7c-17.7,0-32.3,14.7-32.3,32.7"/>
	<path fill="none" stroke="#000000" stroke-width="7" stroke-linecap="round" stroke-linejoin="round" stroke-miterlimit="10" d="
		M-303.2,359.5c-17.7,0-32.3-14.7-32.3-32.7c0-18,14.5-32.7,32.3-32.7c0-18,14.5-32.7,32.3-32.7c17.7,0,32.3,14.7,32.3,32.7"/>
</g>
</svg>
