<?xml version="1.0" encoding="utf-8"?>
<!-- Generator: Adobe Illustrator 18.1.1, SVG Export Plug-In . SVG Version: 6.00 Build 0)  -->
<svg version="1.1" id="Ebene_1" xmlns="http://www.w3.org/2000/svg" xmlns:xlink="http://www.w3.org/1999/xlink" x="0px" y="0px"
	 viewBox="0 0 42 28" enable-background="new 0 0 42 28" xml:space="preserve">
<g>
	<path fill="#737373" d="M26,4H2C0.9,4,0,3.1,0,2v0c0-1.1,0.9-2,2-2l24,0c1.1,0,2,0.9,2,2v0C28,3.1,27.1,4,26,4z"/>
	<path fill="#737373" d="M26,16H2c-1.1,0-2-0.9-2-2v0c0-1.1,0.9-2,2-2h24c1.1,0,2,0.9,2,2v0C28,15.1,27.1,16,26,16z"/>
	<path fill="#737373" d="M26,28H2c-1.1,0-2-0.9-2-2v0c0-1.1,0.9-2,2-2h24c1.1,0,2,0.9,2,2v0C28,27.1,27.1,28,26,28z"/>
	<polygon fill="#737373" points="42,11 37,17 32,11 	"/>
</g>
</svg>
