<?xml version="1.0" encoding="utf-8"?>
<!-- Generator: Adobe Illustrator 18.1.1, SVG Export Plug-In . SVG Version: 6.00 Build 0)  -->
<svg version="1.1" id="Ebene_1" xmlns="http://www.w3.org/2000/svg" xmlns:xlink="http://www.w3.org/1999/xlink" x="0px" y="0px"
	 viewBox="0 0 45 28" enable-background="new 0 0 45 28" xml:space="preserve">
<g>
	<path fill="#737373" d="M29,4H2C0.9,4,0,3.1,0,2v0c0-1.1,0.9-2,2-2l27,0c1.1,0,2,0.9,2,2v0C31,3.1,30.1,4,29,4z"/>
	<path fill="#737373" d="M29,16H2c-1.1,0-2-0.9-2-2v0c0-1.1,0.9-2,2-2h27c1.1,0,2,0.9,2,2v0C31,15.1,30.1,16,29,16z"/>
	<path fill="#737373" d="M29,28H2c-1.1,0-2-0.9-2-2v0c0-1.1,0.9-2,2-2h27c1.1,0,2,0.9,2,2v0C31,27.1,30.1,28,29,28z"/>
	<polygon fill="#737373" points="45,11 40,17 35,11 	"/>
</g>
</svg>
