<?xml version="1.0" encoding="utf-8"?>
<!-- Generator: Adobe Illustrator 18.1.1, SVG Export Plug-In . SVG Version: 6.00 Build 0)  -->
<svg version="1.1" id="Ebene_1" xmlns="http://www.w3.org/2000/svg" xmlns:xlink="http://www.w3.org/1999/xlink" x="0px" y="0px"
	 viewBox="0 0 54 54" enable-background="new 0 0 54 54" xml:space="preserve">
<g>
	<g>
		<path fill="#FFFFFF" d="M27,15.8c-1.6,0-3.6,0.6-4.8,2.3c-1.2,1.8-1.1,4.3,0.1,7.4L27,36.7l4.7-11.2c1.2-3.1,1.3-5.6,0.1-7.4
			C30.6,16.4,28.6,15.8,27,15.8z"/>
	</g>
	<g>
		<path fill="#FFFFFF" d="M27,0C12.1,0,0,12.1,0,27c0,14.9,12.1,27,27,27s27-12.1,27-27C54,12.1,41.9,0,27,0z M34.5,26.6l-6.1,14.6
			c-0.2,0.6-0.8,0.9-1.4,0.9s-1.2-0.4-1.4-0.9l-6.1-14.6c-2.1-5.1-1.1-8.4,0.2-10.2c1.5-2.3,4.3-3.7,7.3-3.7c3,0,5.8,1.4,7.3,3.7
			C35.5,18.3,36.5,21.5,34.5,26.6z"/>
	</g>
</g>
</svg>
