<?xml version="1.0" encoding="utf-8"?>
<!-- Generator: Adobe Illustrator 18.1.1, SVG Export Plug-In . SVG Version: 6.00 Build 0)  -->
<svg version="1.1" id="Ebene_1" xmlns="http://www.w3.org/2000/svg" xmlns:xlink="http://www.w3.org/1999/xlink" x="0px" y="0px"
	 viewBox="0 0 54 54" enable-background="new 0 0 54 54" xml:space="preserve">
<g>
	<path fill="#FFFFFF" d="M27,3c13.2,0,24,10.8,24,24S40.2,51,27,51S3,40.2,3,27S13.8,3,27,3 M27,0C12.1,0,0,12.1,0,27
		c0,14.9,12.1,27,27,27s27-12.1,27-27C54,12.1,41.9,0,27,0L27,0z"/>
	<g>
		<path fill="#FFFFFF" d="M35.2,39.8H20.6C14.6,39.8,9.8,35,9.8,29c0-5.9,4.8-10.8,10.8-10.8c0.8,0,1.5,0.1,2.2,0.2
			c1.3-2.6,4-4.3,7-4.3c4.4,0,7.9,3.5,7.9,7.9c0,0.2,0,0.4,0,0.6c3.4,1.3,5.7,4.6,5.7,8.3c0,4.5-3.4,8.3-7.8,8.8
			C35.5,39.8,35.3,39.8,35.2,39.8z M20.6,21.3c-4.3,0-7.8,3.5-7.8,7.8s3.5,7.8,7.8,7.8h14c3.2,0,5.8-2.6,5.8-5.8
			c0-2.8-2-5.2-4.7-5.7c-0.4-0.1-0.8-0.3-1-0.7s-0.3-0.8-0.2-1.2c0.1-0.4,0.2-0.8,0.2-1.3c0-2.7-2.2-4.9-4.9-4.9
			c-2.2,0-4.1,1.4-4.7,3.5c-0.1,0.4-0.4,0.7-0.8,0.9c-0.4,0.2-0.8,0.2-1.2,0.1C22.3,21.4,21.4,21.3,20.6,21.3z"/>
	</g>
</g>
</svg>
