<?xml version="1.0" encoding="utf-8"?>
<!-- Generator: Adobe Illustrator 18.1.1, SVG Export Plug-In . SVG Version: 6.00 Build 0)  -->
<svg version="1.1" id="Ebene_1" xmlns="http://www.w3.org/2000/svg" xmlns:xlink="http://www.w3.org/1999/xlink" x="0px" y="0px"
	 viewBox="0 0 54 54" enable-background="new 0 0 54 54" xml:space="preserve">
<g>
	<g>
		<path fill="#FFFFFF" d="M26.3,17.3l-4.7,11.2c-1.2,3.1-1.3,5.6-0.1,7.4c1.2,1.7,3.2,2.3,4.8,2.3s3.6-0.6,4.8-2.3
			c1.2-1.8,1.1-4.3-0.1-7.4L26.3,17.3z"/>
	</g>
	<g>
		<path fill="#FFFFFF" d="M27,0C12.1,0,0,12.1,0,27c0,14.9,12.1,27,27,27s27-12.1,27-27C54,12.1,41.9,0,27,0z M34.3,37.6
			c-1.5,2.3-4.3,3.7-7.3,3.7c-3,0-5.8-1.4-7.3-3.7c-1.2-1.8-2.3-5.1-0.2-10.2l6.1-14.6c0.2-0.6,0.8-0.9,1.4-0.9s1.2,0.4,1.4,0.9
			l6.1,14.6C36.5,32.5,35.5,35.7,34.3,37.6z"/>
	</g>
</g>
</svg>
