<?xml version="1.0" encoding="utf-8"?>
<!-- Generator: Adobe Illustrator 18.1.1, SVG Export Plug-In . SVG Version: 6.00 Build 0)  -->
<svg version="1.1" id="Ebene_1" xmlns="http://www.w3.org/2000/svg" xmlns:xlink="http://www.w3.org/1999/xlink" x="0px" y="0px"
	 viewBox="0 0 54 54" enable-background="new 0 0 54 54" xml:space="preserve">
<g>
	<path fill="#FFFFFF" d="M27,0C12.1,0,0,12.1,0,27c0,14.9,12.1,27,27,27s27-12.1,27-27C54,12.1,41.9,0,27,0z M27,36.7
		c-1.9,0-3.1-0.3-4.1-1.3c-0.8-0.6-1.3-1.6-1.3-2.7c0-0.5,0.1-0.9,0.4-1.2c0.3-0.3,0.7-0.5,1.2-0.5c0.5,0,0.7,0.1,1,0.3
		c0.3,0.2,0.4,0.5,0.6,1c0.3,1,0.9,1.4,2.2,1.4c1.3,0,2.4-0.9,2.4-2.4c0-1.5-0.8-2.4-2.4-2.4c-0.3,0-0.6-0.1-0.9-0.2
		c-0.4-0.2-0.7-0.7-0.7-1.2c0-0.5,0.2-1,0.7-1.2c0.3-0.1,0.6-0.2,0.9-0.2c1.4,0,2.2-0.8,2.2-2.2c0-1.4-0.9-2.2-2.2-2.2
		c-1.1,0-1.6,0.4-2,1.3c-0.2,0.5-0.4,0.8-0.6,1c-0.2,0.2-0.5,0.3-1,0.3c-0.8,0-1.5-0.6-1.5-1.5c0-0.4,0.1-0.8,0.2-1.2
		c0.2-0.6,0.6-1.1,1-1.6c1-0.9,2.2-1.3,3.8-1.3c3,0,5.4,1.8,5.4,5c0,2-1,3.1-2.2,3.7c1.2,0.6,2.3,1.8,2.3,4.1
		C32.6,34.8,30.1,36.7,27,36.7z"/>
</g>
</svg>
