<?xml version="1.0" encoding="utf-8"?>
<!-- Generator: Adobe Illustrator 18.1.1, SVG Export Plug-In . SVG Version: 6.00 Build 0)  -->
<svg version="1.1" id="Ebene_1" xmlns="http://www.w3.org/2000/svg" xmlns:xlink="http://www.w3.org/1999/xlink" x="0px" y="0px"
	 viewBox="0 0 54 54" enable-background="new 0 0 54 54" xml:space="preserve">
<g>
	<path fill="#FFFFFF" d="M27,0C12.1,0,0,12.1,0,27c0,14.9,12.1,27,27,27s27-12.1,27-27C54,12.1,41.9,0,27,0z M31.7,25.1
		c0.6,0,1.1,0.3,1.3,0.8c0.3,0.5,0.2,1.1-0.1,1.6l-9.5,13.2c-0.3,0.4-0.8,0.6-1.2,0.6c-0.3,0-0.6-0.1-0.9-0.3
		c-0.7-0.5-0.8-1.4-0.3-2.1l7.8-10.8h-6.5c-0.6,0-1.1-0.3-1.3-0.8c-0.3-0.5-0.2-1.1,0.1-1.6l9.5-13.2c0.5-0.7,1.4-0.8,2.1-0.3
		c0.7,0.5,0.8,1.4,0.3,2.1l-7.8,10.8H31.7z"/>
</g>
</svg>
