<?xml version="1.0" encoding="utf-8"?>
<!-- Generator: Adobe Illustrator 18.1.1, SVG Export Plug-In . SVG Version: 6.00 Build 0)  -->
<svg version="1.1" id="Ebene_1" xmlns="http://www.w3.org/2000/svg" xmlns:xlink="http://www.w3.org/1999/xlink" x="0px" y="0px"
	 viewBox="0 0 54 54" enable-background="new 0 0 54 54" xml:space="preserve">
<g>
	<g>
		<path fill="#FFFFFF" d="M27,0C12.1,0,0,12.1,0,27c0,14.9,12.1,27,27,27s27-12.1,27-27C54,12.1,41.9,0,27,0z M35.6,39.7
			c-0.1,0-0.3,0.1-0.4,0.1H20.6C14.6,39.8,9.8,35,9.8,29c0-5.9,4.8-10.8,10.8-10.8c0.8,0,1.5,0.1,2.2,0.2c1.3-2.6,4-4.3,7-4.3
			c4.4,0,7.9,3.5,7.9,7.9c0,0.2,0,0.4,0,0.6c3.4,1.3,5.7,4.6,5.7,8.3C43.4,35.5,40,39.2,35.6,39.7z"/>
	</g>
	<g>
		<path fill="#FFFFFF" d="M35.7,25.2c-0.4-0.1-0.8-0.3-1-0.7s-0.3-0.8-0.2-1.2c0.1-0.4,0.2-0.8,0.2-1.3c0-2.7-2.2-4.9-4.9-4.9
			c-2.2,0-4.1,1.4-4.7,3.5c-0.1,0.4-0.4,0.7-0.8,0.9c-0.4,0.2-0.8,0.2-1.2,0.1c-0.9-0.3-1.8-0.5-2.6-0.5c-4.3,0-7.8,3.5-7.8,7.8
			s3.5,7.8,7.8,7.8h14c3.2,0,5.8-2.6,5.8-5.8C40.4,28.2,38.4,25.8,35.7,25.2z"/>
	</g>
</g>
</svg>
