<?xml version="1.0" encoding="utf-8"?>
<!-- Generator: Adobe Illustrator 18.1.1, SVG Export Plug-In . SVG Version: 6.00 Build 0)  -->
<svg version="1.1" id="Ebene_1" xmlns="http://www.w3.org/2000/svg" xmlns:xlink="http://www.w3.org/1999/xlink" x="0px" y="0px"
	 viewBox="0 0 54 54" enable-background="new 0 0 54 54" xml:space="preserve">
<g>
	<path fill="#FFFFFF" d="M27.1,3c13.2,0,24,10.8,24,24s-10.8,24-24,24s-24-10.8-24-24S13.8,3,27.1,3 M27.1,0c-14.9,0-27,12.1-27,27
		c0,14.9,12.1,27,27,27s27-12.1,27-27C54.1,12.1,42,0,27.1,0L27.1,0z"/>
	<g>
		<path fill="#FFFFFF" d="M22.1,24c0.1-0.4,0.3-0.6,0.8-1.1l3.4-3.4c0.5-0.5,1-0.8,1.7-0.8c0.5,0,0.9,0.2,1.2,0.5
			c0.4,0.4,0.5,1,0.5,1.6v13.7c0,0.8,0,1.1-0.2,1.4c-0.2,0.5-0.7,0.8-1.4,0.8c-0.7,0-1.2-0.3-1.4-0.8c-0.2-0.4-0.2-0.7-0.2-1.4V23.6
			L25,25.1c-0.5,0.5-0.7,0.7-1.1,0.8c-0.5,0.2-1,0-1.4-0.4C22.1,25,21.9,24.5,22.1,24z"/>
	</g>
</g>
</svg>
