<?xml version="1.0" encoding="utf-8"?>
<!-- Generator: Adobe Illustrator 18.1.1, SVG Export Plug-In . SVG Version: 6.00 Build 0)  -->
<svg version="1.1" id="Ebene_1" xmlns="http://www.w3.org/2000/svg" xmlns:xlink="http://www.w3.org/1999/xlink" x="0px" y="0px"
	 viewBox="0 0 54 54" enable-background="new 0 0 54 54" xml:space="preserve">
<g>
	<path fill="#FFFFFF" d="M27,0C12.1,0,0,12.1,0,27c0,14.9,12.1,27,27,27s27-12.1,27-27C54,12.1,41.9,0,27,0z M40.2,28.5h-9.5
		l6.7,6.7c0.6,0.6,0.6,1.5,0,2.1c-0.3,0.3-0.7,0.4-1.1,0.4s-0.8-0.1-1.1-0.4l-6.7-6.7v9.5c0,0.8-0.7,1.5-1.5,1.5s-1.5-0.7-1.5-1.5
		v-9.5l-6.7,6.7c-0.3,0.3-0.7,0.4-1.1,0.4s-0.8-0.1-1.1-0.4c-0.6-0.6-0.6-1.5,0-2.1l6.7-6.7h-9.5c-0.8,0-1.5-0.7-1.5-1.5
		s0.7-1.5,1.5-1.5h9.5l-6.7-6.7c-0.6-0.6-0.6-1.5,0-2.1c0.6-0.6,1.5-0.6,2.1,0l6.7,6.7v-9.5c0-0.8,0.7-1.5,1.5-1.5s1.5,0.7,1.5,1.5
		v9.5l6.7-6.7c0.6-0.6,1.5-0.6,2.1,0c0.6,0.6,0.6,1.5,0,2.1l-6.7,6.7h9.5c0.8,0,1.5,0.7,1.5,1.5S41,28.5,40.2,28.5z"/>
</g>
</svg>
