<?xml version="1.0" encoding="utf-8"?>
<!-- Generator: Adobe Illustrator 18.1.1, SVG Export Plug-In . SVG Version: 6.00 Build 0)  -->
<svg version="1.1" id="Ebene_1" xmlns="http://www.w3.org/2000/svg" xmlns:xlink="http://www.w3.org/1999/xlink" x="0px" y="0px"
	 viewBox="0 0 54 54" enable-background="new 0 0 54 54" xml:space="preserve">
<g>
	<path fill="#FFFFFF" d="M27,3c13.2,0,24,10.8,24,24S40.2,51,27,51S3,40.2,3,27S13.8,3,27,3 M27,0C12.1,0,0,12.1,0,27
		c0,14.9,12.1,27,27,27s27-12.1,27-27C54,12.1,41.9,0,27,0L27,0z"/>
	<g>
		<path fill="#FFFFFF" d="M27,42.1c-0.6,0-1.2-0.4-1.4-0.9l-6.1-14.6c-2.1-5.1-1.1-8.4,0.2-10.2c1.5-2.3,4.3-3.7,7.3-3.7
			c3,0,5.8,1.4,7.3,3.7c1.2,1.8,2.3,5.1,0.2,10.2l-6.1,14.6C28.2,41.7,27.6,42.1,27,42.1z M27,15.8c-1.6,0-3.6,0.6-4.8,2.3
			c-1.2,1.8-1.1,4.3,0.1,7.4L27,36.7l4.7-11.2c1.2-3.1,1.3-5.6,0.1-7.4C30.6,16.4,28.6,15.8,27,15.8z"/>
	</g>
</g>
</svg>
