<?xml version="1.0" encoding="utf-8"?>
<!-- Generator: Adobe Illustrator 18.1.1, SVG Export Plug-In . SVG Version: 6.00 Build 0)  -->
<svg version="1.1" id="Ebene_1" xmlns="http://www.w3.org/2000/svg" xmlns:xlink="http://www.w3.org/1999/xlink" x="0px" y="0px"
	 viewBox="0 0 54 54" enable-background="new 0 0 54 54" xml:space="preserve">
<g>
	<path fill="#FFFFFF" d="M27,0C12.1,0,0,12.1,0,27c0,14.9,12.1,27,27,27s27-12.1,27-27C54,12.1,41.9,0,27,0z M29.7,34.4
		c0,0.8,0,1.1-0.2,1.4c-0.2,0.5-0.7,0.8-1.4,0.8c-0.7,0-1.2-0.3-1.4-0.8c-0.2-0.4-0.2-0.7-0.2-1.4V23.6L25,25.1
		c-0.5,0.5-0.7,0.7-1.1,0.8c-0.5,0.2-1,0-1.4-0.4C22,25,21.8,24.5,22,24c0.1-0.4,0.3-0.6,0.8-1.1l3.4-3.4c0.5-0.5,1-0.8,1.7-0.8
		c0.5,0,0.9,0.2,1.2,0.5c0.4,0.4,0.5,1,0.5,1.6V34.4z"/>
</g>
</svg>
