<?xml version="1.0" encoding="utf-8"?>
<!-- Generator: Adobe Illustrator 18.1.1, SVG Export Plug-In . SVG Version: 6.00 Build 0)  -->
<svg version="1.1" id="Ebene_1" xmlns="http://www.w3.org/2000/svg" xmlns:xlink="http://www.w3.org/1999/xlink" x="0px" y="0px"
	 viewBox="0 0 54 54" enable-background="new 0 0 54 54" xml:space="preserve">
<g>
	<path fill="#FFFFFF" d="M27,3c13.2,0,24,10.8,24,24S40.2,51,27,51S3,40.2,3,27S13.8,3,27,3 M27,0C12.1,0,0,12.1,0,27
		c0,14.9,12.1,27,27,27c14.9,0,27-12.1,27-27C54,12.1,41.9,0,27,0L27,0z"/>
	<g>
		<path fill="#FFFFFF" d="M16.8,34.7c-0.2,0.6-0.4,1.1-0.8,1.5c-0.3,0.2-0.7,0.4-1.2,0.4c-0.5,0-0.9-0.1-1.2-0.4
			c-0.5-0.4-0.7-0.9-0.8-1.5L9.4,21.2c-0.2-0.8-0.2-1-0.1-1.5c0.2-0.6,0.9-1.1,1.6-1.1c0.4,0,0.8,0.2,1.1,0.5
			c0.3,0.3,0.4,0.6,0.5,1.3l2.4,9.5l2.8-9.8c0.1-0.5,0.3-0.8,0.6-1c0.3-0.3,0.6-0.4,1.1-0.4c0.5,0,0.9,0.1,1.1,0.4
			c0.2,0.2,0.4,0.6,0.6,1l2.8,9.8l2.4-9.5c0.2-0.8,0.3-1,0.5-1.3c0.2-0.3,0.7-0.5,1.1-0.5c0.8,0,1.5,0.5,1.6,1.1
			c0.1,0.4,0.1,0.7-0.1,1.5l-3.4,13.5c-0.2,0.6-0.4,1.1-0.8,1.5c-0.3,0.2-0.7,0.4-1.2,0.4c-0.5,0-0.9-0.1-1.2-0.4
			c-0.4-0.4-0.6-0.9-0.8-1.5l-2.7-9.2L16.8,34.7z"/>
		<path fill="#FFFFFF" d="M32.9,36c-0.5-0.5-0.5-1.1-0.5-1.6V20.9c0-0.5,0-1.1,0.5-1.6s1.1-0.5,1.6-0.5h7.6c0.7,0,1,0,1.4,0.2
			c0.4,0.2,0.7,0.7,0.7,1.3s-0.3,1.1-0.7,1.3c-0.3,0.2-0.6,0.2-1.4,0.2h-6.2V26h5c0.7,0,1,0,1.4,0.2c0.4,0.2,0.7,0.7,0.7,1.3
			s-0.3,1.1-0.7,1.3c-0.3,0.2-0.6,0.2-1.4,0.2h-5v4.3h6.2c0.7,0,1,0,1.4,0.2c0.4,0.2,0.7,0.7,0.7,1.3s-0.3,1.1-0.7,1.4
			c-0.3,0.2-0.6,0.2-1.4,0.2h-7.6C34,36.5,33.4,36.5,32.9,36z"/>
	</g>
</g>
</svg>
