<?xml version="1.0" encoding="utf-8"?>
<!-- Generator: Adobe Illustrator 18.1.1, SVG Export Plug-In . SVG Version: 6.00 Build 0)  -->
<svg version="1.1" id="Ebene_1" xmlns="http://www.w3.org/2000/svg" xmlns:xlink="http://www.w3.org/1999/xlink" x="0px" y="0px"
	 viewBox="0 0 54 54" enable-background="new 0 0 54 54" xml:space="preserve">
<g>
	<path fill="#FFFFFF" d="M27,3c13.2,0,24,10.8,24,24S40.2,51,27,51S3,40.2,3,27S13.8,3,27,3 M27,0C12.1,0,0,12.1,0,27
		c0,14.9,12.1,27,27,27s27-12.1,27-27C54,12.1,41.9,0,27,0L27,0z"/>
	<g>
		<path fill="#FFFFFF" d="M27,41.7c-0.8,0-1.5-0.7-1.5-1.5V13.8c0-0.8,0.7-1.5,1.5-1.5s1.5,0.7,1.5,1.5v26.3
			C28.5,41,27.8,41.7,27,41.7z"/>
	</g>
	<g>
		<path fill="#FFFFFF" d="M40.2,28.5H13.8c-0.8,0-1.5-0.7-1.5-1.5s0.7-1.5,1.5-1.5h26.3c0.8,0,1.5,0.7,1.5,1.5S41,28.5,40.2,28.5z"
			/>
	</g>
	<g>
		<path fill="#FFFFFF" d="M36.3,37.8c-0.4,0-0.8-0.1-1.1-0.4L16.6,18.8c-0.6-0.6-0.6-1.5,0-2.1c0.6-0.6,1.5-0.6,2.1,0l18.6,18.6
			c0.6,0.6,0.6,1.5,0,2.1C37.1,37.7,36.7,37.8,36.3,37.8z"/>
	</g>
	<g>
		<path fill="#FFFFFF" d="M17.7,37.8c-0.4,0-0.8-0.1-1.1-0.4c-0.6-0.6-0.6-1.5,0-2.1l18.6-18.6c0.6-0.6,1.5-0.6,2.1,0
			c0.6,0.6,0.6,1.5,0,2.1L18.8,37.4C18.5,37.7,18.1,37.8,17.7,37.8z"/>
	</g>
</g>
</svg>
