<?xml version="1.0" encoding="utf-8"?>
<!-- Generator: Adobe Illustrator 18.1.1, SVG Export Plug-In . SVG Version: 6.00 Build 0)  -->
<svg version="1.1" id="Ebene_1" xmlns="http://www.w3.org/2000/svg" xmlns:xlink="http://www.w3.org/1999/xlink" x="0px" y="0px"
	 viewBox="0 0 54 54" enable-background="new 0 0 54 54" xml:space="preserve">
<g>
	<path fill="#FFFFFF" d="M27,3c13.2,0,24,10.8,24,24S40.2,51,27,51S3,40.2,3,27S13.8,3,27,3 M27,0C12.1,0,0,12.1,0,27
		c0,14.9,12.1,27,27,27c14.9,0,27-12.1,27-27C54,12.1,41.9,0,27,0L27,0z"/>
	<g>
		<path fill="#FFFFFF" d="M15.2,24c0.1-0.4,0.3-0.6,0.8-1.1l3.4-3.4c0.5-0.5,1-0.8,1.8-0.8c0.5,0,0.9,0.2,1.2,0.5
			c0.4,0.4,0.5,1,0.5,1.6v13.7c0,0.8,0,1.1-0.2,1.4c-0.2,0.5-0.8,0.8-1.4,0.8s-1.2-0.3-1.4-0.8c-0.2-0.4-0.2-0.7-0.2-1.4V23.6
			l-1.5,1.5c-0.5,0.5-0.7,0.7-1.1,0.8c-0.5,0.2-1,0-1.5-0.4C15.2,25,15.1,24.5,15.2,24z"/>
		<path fill="#FFFFFF" d="M35.7,21.3l-2.4,4.7c0.4-0.2,0.9-0.2,1.3-0.2c2.4,0,4.7,2,4.7,5.3c0,3.5-2.4,5.5-5.5,5.5
			c-3.1,0-5.5-2-5.5-5.5c0-1.6,0.7-3.1,1.5-4.7l3.2-6.5c0.3-0.6,0.5-0.9,0.8-1.1c0.2-0.2,0.5-0.2,0.8-0.2c0.8,0,1.6,0.6,1.6,1.4
			C36.1,20.4,36,20.7,35.7,21.3z M33.8,28.6c-1.3,0-2.3,0.9-2.3,2.6c0,1.6,1,2.6,2.3,2.6c1.3,0,2.3-0.9,2.3-2.6
			C36.1,29.6,35.1,28.6,33.8,28.6z"/>
	</g>
</g>
</svg>
