<?xml version="1.0" encoding="utf-8"?>
<!-- Generator: Adobe Illustrator 18.1.1, SVG Export Plug-In . SVG Version: 6.00 Build 0)  -->
<svg version="1.1" id="Ebene_1" xmlns="http://www.w3.org/2000/svg" xmlns:xlink="http://www.w3.org/1999/xlink" x="0px" y="0px"
	 viewBox="0 0 54 54" enable-background="new 0 0 54 54" xml:space="preserve">
<g>
	<g>
		<path fill="#FFFFFF" d="M33.8,28.6c-1.3,0-2.3,0.9-2.3,2.6c0,1.6,1,2.6,2.3,2.6c1.3,0,2.3-0.9,2.3-2.6
			C36.1,29.6,35.1,28.6,33.8,28.6z"/>
	</g>
	<g>
		<path fill="#FFFFFF" d="M27,0C12.1,0,0,12.1,0,27c0,14.9,12.1,27,27,27c14.9,0,27-12.1,27-27C54,12.1,41.9,0,27,0z M22.9,34.4
			c0,0.8,0,1.1-0.2,1.4c-0.2,0.5-0.8,0.8-1.4,0.8s-1.2-0.3-1.4-0.8c-0.2-0.4-0.2-0.7-0.2-1.4V23.6l-1.5,1.5
			c-0.5,0.5-0.7,0.7-1.1,0.8c-0.5,0.2-1,0-1.5-0.4c-0.4-0.4-0.6-1-0.4-1.4c0.1-0.4,0.3-0.6,0.8-1.1l3.4-3.4c0.5-0.5,1-0.8,1.8-0.8
			c0.5,0,0.9,0.2,1.2,0.5c0.4,0.4,0.5,1,0.5,1.6V34.4z M33.8,36.7c-3.1,0-5.5-2-5.5-5.5c0-1.6,0.7-3.1,1.5-4.7l3.2-6.5
			c0.3-0.6,0.5-0.9,0.8-1.1c0.2-0.2,0.5-0.2,0.8-0.2c0.8,0,1.6,0.6,1.6,1.4c0,0.4-0.1,0.6-0.4,1.3l-2.4,4.7c0.4-0.2,0.9-0.2,1.3-0.2
			c2.4,0,4.7,2,4.7,5.3C39.3,34.6,36.9,36.7,33.8,36.7z"/>
	</g>
</g>
</svg>
