<?xml version="1.0" encoding="utf-8"?>
<!-- Generator: Adobe Illustrator 16.0.0, SVG Export Plug-In . SVG Version: 6.00 Build 0)  -->
<!DOCTYPE svg PUBLIC "-//W3C//DTD SVG 1.1//EN" "http://www.w3.org/Graphics/SVG/1.1/DTD/svg11.dtd">
<svg version="1.1" id="Layer_1" xmlns="http://www.w3.org/2000/svg" xmlns:xlink="http://www.w3.org/1999/xlink" x="0px" y="0px"
	 width="2000px" height="700px" viewBox="0 0 2000 700" enable-background="new 0 0 2000 700" xml:space="preserve">
<g>
	<path d="M610.616,242.859c-1.139,3.762-2.133,5.819-3.693,7.027c-1.415,1.202-3.189,1.913-5.321,1.913
		c-2.202,0-3.977-0.711-5.392-1.913c-1.561-1.208-2.555-3.265-3.692-7.027l-15.753-53.013c-0.925-3.196-1.139-4.542-0.711-6.247
		c0.636-2.768,3.617-4.895,6.813-4.895c1.912,0,3.403,0.705,4.611,1.913c1.062,1.063,1.635,2.485,2.484,5.467l12.418,43.646
		l12.99-42.513c1.063-3.473,1.988-5.46,3.549-6.738c1.276-1.139,2.837-1.774,4.895-1.774c2.057,0,3.617,0.636,4.899,1.774
		c1.561,1.277,2.479,3.265,3.549,6.738l12.984,42.513l12.418-43.646c0.855-2.982,1.422-4.403,2.484-5.467
		c1.208-1.208,2.699-1.913,4.611-1.913c3.196,0,6.178,2.127,6.813,4.895c0.428,1.705,0.214,3.051-0.705,6.247l-15.758,53.013
		c-1.133,3.762-2.127,5.819-3.688,7.027c-1.421,1.202-3.195,1.913-5.396,1.913c-2.127,0-3.901-0.711-5.322-1.913
		c-1.561-1.208-2.555-3.265-3.692-7.027l-13.198-42.513L610.616,242.859z"/>
	<path d="M713.076,178.417c18.804,0,30.02,13.701,30.447,32.718c0.069,2.132-0.214,4.687-1.987,6.461
		c-1.85,1.843-4.26,1.843-6.392,1.843h-38.249c0,12.28,6.455,20.295,18.451,20.295c5.039,0,9.934-1.416,13.84-4.542
		c2.196-1.774,4.045-2.624,5.889-2.624c2.912,0,5.964,2.838,5.964,6.172c0,3.34-3.693,6.46-7.241,8.731
		c-4.542,2.981-11.071,4.611-18.81,4.611c-17.954,0-32.429-9.437-32.429-36.833C682.56,191.545,694.694,178.417,713.076,178.417z
		 M727.269,199.566c-2.41-5.392-7.38-9.084-14.192-9.084c-6.958,0-11.921,3.692-14.337,9.084c-1.422,3.126-1.705,5.397-1.844,9.794
		h32.36C728.973,204.963,728.689,202.692,727.269,199.566z"/>
	<path d="M765.563,190.344h-3.335c-2.698,0-3.762-0.145-5.039-0.855c-1.629-0.919-2.554-2.554-2.554-4.681
		c0-2.132,0.925-3.762,2.554-4.687c1.277-0.711,2.341-0.85,5.039-0.85h3.335v-11.285c0-3.479,0.214-4.756,1.068-6.461
		c0.994-1.913,3.052-3.403,6.172-3.403s5.184,1.491,6.178,3.403c0.849,1.705,1.062,2.982,1.062,6.461v11.285h7.808
		c2.692,0,3.762,0.139,5.038,0.85c1.63,0.925,2.555,2.554,2.555,4.687c0,2.126-0.925,3.762-2.555,4.681
		c-1.276,0.711-2.346,0.855-5.038,0.855h-7.808v40.306c0,4.97,1.988,8.165,7.311,8.304c2.34,0.075,3.97,0.283,5.252,0.994
		c1.699,0.924,2.907,2.698,2.907,5.114c0,2.41-1.208,4.114-2.907,5.039c-1.282,0.705-3.195,1.133-6.107,1.133h-1.416
		c-13.557,0-19.52-9.367-19.52-19.942V190.344z"/>
	<path d="M815.479,190.344h-3.334c-2.699,0-3.762-0.145-5.039-0.855c-1.63-0.919-2.555-2.554-2.555-4.681
		c0-2.132,0.925-3.762,2.555-4.687c1.277-0.711,2.34-0.85,5.039-0.85h3.334v-11.285c0-3.479,0.214-4.756,1.069-6.461
		c0.994-1.913,3.051-3.403,6.171-3.403c3.121,0,5.184,1.491,6.178,3.403c0.85,1.705,1.063,2.982,1.063,6.461v11.285h7.807
		c2.692,0,3.762,0.139,5.039,0.85c1.63,0.925,2.554,2.554,2.554,4.687c0,2.126-0.924,3.762-2.554,4.681
		c-1.277,0.711-2.347,0.855-5.039,0.855h-7.807v40.306c0,4.97,1.987,8.165,7.31,8.304c2.341,0.075,3.97,0.283,5.253,0.994
		c1.699,0.924,2.906,2.698,2.906,5.114c0,2.41-1.207,4.114-2.906,5.039c-1.283,0.705-3.195,1.133-6.108,1.133h-1.415
		c-13.557,0-19.521-9.367-19.521-19.942V190.344z"/>
	<path d="M888.531,178.417c18.804,0,30.021,13.701,30.448,32.718c0.069,2.132-0.214,4.687-1.988,6.461
		c-1.85,1.843-4.259,1.843-6.392,1.843h-38.248c0,12.28,6.455,20.295,18.451,20.295c5.039,0,9.934-1.416,13.84-4.542
		c2.195-1.774,4.045-2.624,5.888-2.624c2.913,0,5.964,2.838,5.964,6.172c0,3.34-3.692,6.46-7.24,8.731
		c-4.542,2.981-11.072,4.611-18.81,4.611c-17.954,0-32.43-9.437-32.43-36.833C858.015,191.545,870.149,178.417,888.531,178.417z
		 M902.724,199.566c-2.409-5.392-7.379-9.084-14.192-9.084c-6.957,0-11.921,3.692-14.336,9.084
		c-1.422,3.126-1.705,5.397-1.844,9.794h32.36C904.429,204.963,904.146,202.692,902.724,199.566z"/>
	<path d="M970.755,178.417c5.322,0,9.159,0.994,12.633,3.34c2.484,1.629,4.328,3.762,4.328,6.529c0,2.058-0.85,3.97-2.127,5.247
		c-1.208,1.208-3.12,1.988-4.97,1.988c-1.49,0-3.12-0.497-5.605-1.913c-2.409-1.353-4.969-2.132-7.807-2.132
		c-8.229,0-14.689,6.102-14.689,16.111v34.348c0,3.479-0.213,4.756-1.062,6.461c-0.994,1.913-3.052,3.403-6.178,3.403
		c-3.12,0-5.178-1.491-6.172-3.403c-0.854-1.705-1.062-2.982-1.062-6.461v-53.296c0-3.976,0.283-5.253,1.276-6.882
		c1.202-1.919,3.549-3.052,5.958-3.052c2.347,0,4.542,0.919,5.895,2.838c0.78,1.132,1.133,2.201,1.276,5.252
		C956.494,181.757,963.231,178.417,970.755,178.417z"/>
	<path d="M997.464,251.66c-5.675,0-10.361-4.687-10.361-10.361c0-5.68,4.687-10.222,10.361-10.222
		c5.681,0,10.367,4.542,10.367,10.222C1007.831,246.974,1003.145,251.66,997.464,251.66z"/>
	<path d="M1057.035,178.417c6.455,0,10.928,1.421,15.753,4.542c3.762,2.416,7.026,4.969,7.026,8.662c0,1.774-0.78,3.404-2.057,4.756
		c-1.069,1.063-2.769,1.843-4.473,1.843c-1.919,0-3.334-0.78-5.75-2.768c-3.617-2.913-6.529-3.976-10.5-3.976
		c-5.68,0-10.008,2.057-13.135,6.177c-3.12,4.114-4.328,9.223-4.328,17.596c0,8.304,1.208,13.487,4.328,17.532
		c3.127,4.184,7.455,6.247,13.135,6.247c3.971,0,6.883-1.208,10.5-4.045c2.416-1.919,3.831-2.768,5.75-2.768
		c1.704,0,3.403,0.849,4.473,1.913c1.276,1.353,2.057,2.912,2.057,4.756c0,3.617-3.409,6.316-7.026,8.656
		c-4.542,2.912-9.153,4.542-15.753,4.542c-16.324,0-31.938-9.864-31.938-36.833C1025.098,188.286,1040.711,178.417,1057.035,178.417
		z"/>
	<path d="M1101.565,186.934c4.681-4.825,11.707-8.518,21.502-8.518s16.821,3.692,21.502,8.518c6.958,7.241,8.448,16.18,8.448,28.315
		c0,12.141-1.49,21.081-8.448,28.321c-4.681,4.825-11.707,8.512-21.502,8.512s-16.821-3.687-21.502-8.512
		c-7.026-7.241-8.448-16.18-8.448-28.321C1093.117,203.114,1094.539,194.175,1101.565,186.934z M1112.562,234.908
		c2.698,2.768,6.107,4.12,10.505,4.12s7.807-1.353,10.506-4.12c4.328-4.328,4.964-11.777,4.964-19.659
		c0-7.876-0.636-15.255-4.964-19.653c-2.699-2.768-6.108-4.12-10.506-4.12s-7.807,1.352-10.505,4.12
		c-4.328,4.397-4.964,11.777-4.964,19.653C1107.599,223.131,1108.234,230.58,1112.562,234.908z"/>
	<path d="M1274.912,241.935c0,3.479-0.214,4.756-1.069,6.461c-0.994,1.913-3.051,3.403-6.172,3.403
		c-3.126,0-5.184-1.491-6.177-3.403c-0.85-1.705-1.063-2.982-1.063-6.461v-34.562c0-11.21-6.386-15.897-14.476-15.897
		c-7.807,0-14.903,4.825-14.903,15.186v35.272c0,3.479-0.213,4.756-1.062,6.461c-0.994,1.913-3.058,3.403-6.178,3.403
		s-5.178-1.491-6.172-3.403c-0.854-1.705-1.068-2.982-1.068-6.461v-34.562c0-11.21-6.386-15.897-14.476-15.897
		s-14.903,4.825-14.903,15.897v34.562c0,3.479-0.214,4.756-1.063,6.461c-0.993,1.913-3.051,3.403-6.177,3.403
		c-3.12,0-5.178-1.491-6.172-3.403c-0.854-1.705-1.063-2.982-1.063-6.461v-53.296c0-3.976,0.283-5.253,1.277-6.882
		c1.202-1.919,3.548-3.052,5.958-3.052c2.346,0,4.542,0.919,5.895,2.838c0.704,1.063,1.132,2.126,1.276,4.756
		c4.825-5.114,11.777-7.882,18.948-7.882c8.939,0,15.896,3.554,20.438,10.505c5.819-7.096,13.061-10.505,22.565-10.505
		c7.38,0,13.909,2.416,18.168,6.53c5.536,5.397,7.669,12.21,7.669,20.3V241.935z"/>
</g>
</svg>
