<?xml version="1.0" encoding="utf-8"?>
<!-- Generator: Adobe Illustrator 18.1.1, SVG Export Plug-In . SVG Version: 6.00 Build 0)  -->
<svg version="1.1" id="Ebene_1" xmlns="http://www.w3.org/2000/svg" xmlns:xlink="http://www.w3.org/1999/xlink" x="0px" y="0px"
	 viewBox="0 0 50 50" enable-background="new 0 0 50 50" xml:space="preserve">
<g>
	<g>
		<circle fill="#747374" cx="25" cy="25" r="12.5"/>
	</g>
	<g>
		<path fill="#747374" d="M50,23.2h-3.8C45.5,12.9,37.1,4.5,26.8,3.7V0h-3.6v3.7C12.9,4.5,4.5,12.9,3.7,23.2H0v3.6h3.7
			c0.7,10.4,9.1,18.8,19.5,19.5V50h3.6v-3.8c10.4-0.9,18.8-9.1,19.5-19.5H50V23.2z M25,42.9c-9.8,0-17.9-8-17.9-17.9
			S15.2,7.1,25,7.1s17.9,8,17.9,17.9S34.8,42.9,25,42.9z"/>
	</g>
</g>
</svg>
