<?xml version="1.0" encoding="utf-8"?>
<!-- Generator: Adobe Illustrator 18.1.1, SVG Export Plug-In . SVG Version: 6.00 Build 0)  -->
<svg version="1.1" id="Ebene_1" xmlns="http://www.w3.org/2000/svg" xmlns:xlink="http://www.w3.org/1999/xlink" x="0px" y="0px"
	 viewBox="0 0 28 28" enable-background="new 0 0 28 28" xml:space="preserve">
<g>
	<g>
		<circle fill="#737373" cx="14" cy="14" r="7"/>
	</g>
	<g>
		<path fill="#737373" d="M28,13h-2.1C25.5,7.2,20.8,2.5,15,2.1V0h-2v2.1C7.2,2.5,2.5,7.2,2.1,13H0v2h2.1C2.5,20.8,7.2,25.5,13,25.9
			V28h2v-2.1c5.8-0.5,10.5-5.1,10.9-10.9H28V13z M14,24C8.5,24,4,19.5,4,14C4,8.5,8.5,4,14,4s10,4.5,10,10C24,19.5,19.5,24,14,24z"
			/>
	</g>
</g>
</svg>
