<?xml version="1.0" encoding="utf-8"?>
<!-- Generator: Adobe Illustrator 18.1.1, SVG Export Plug-In . SVG Version: 6.00 Build 0)  -->
<svg version="1.1" id="Ebene_1" xmlns="http://www.w3.org/2000/svg" xmlns:xlink="http://www.w3.org/1999/xlink" x="0px" y="0px"
	 viewBox="0 0 2500 50" enable-background="new 0 0 2500 50" xml:space="preserve">
<g>
	<g opacity="0.2">
		<path d="M688,19.1c-0.9-0.3-1.9,0.1-2.2,1l-4.7,12.5l-4.7-12.5c-0.3-0.7-0.9-1.1-1.6-1.1c-0.7,0-1.4,0.4-1.6,1.1l-4.7,12.5
			l-4.7-12.5c-0.3-0.9-1.3-1.4-2.2-1c-0.9,0.3-1.4,1.3-1,2.2l6.3,16.8c0.3,0.7,0.9,1.1,1.6,1.1c0.7,0,1.4-0.4,1.6-1.1l4.7-12.5
			l4.7,12.5c0.3,0.7,0.9,1.1,1.6,1.1s1.4-0.4,1.6-1.1l6.3-16.8C689.4,20.4,688.9,19.4,688,19.1z"/>
		<path d="M821.3,19c-3,0-5.6,1.5-7.2,3.7c-1.6-2.2-4.3-3.7-7.2-3.7c-2.4,0-4.7,1-6.4,2.6c-1.4-1.3-3.2-2.2-5.2-2.5
			c-0.8-4.8-5-8.6-10-8.6c-5.1,0-9.3,3.7-10,8.5c-4.8,0.8-8.5,5-8.5,10c0,5.6,4.6,10.2,10.2,10.2h4.6c1,0,1.7-0.8,1.7-1.7
			c0-1-0.8-1.7-1.7-1.7h-4.6c-3.7,0-6.7-3-6.7-6.7c0-3.7,3-6.7,6.7-6.7c1,0,1.7-0.8,1.7-1.7c0-3.7,3-6.7,6.7-6.7
			c3.1,0,5.8,2.2,6.5,5.1c-4.7,0.9-8.2,5-8.2,10c0,1,0.8,1.7,1.7,1.7c1,0,1.7-0.8,1.7-1.7c0-3.7,3-6.7,6.7-6.7c3.7,0,6.7,3,6.7,6.7
			c0,3.7-3,6.7-6.7,6.7c-1,0-1.7,0.8-1.7,1.7c0,1,0.8,1.7,1.7,1.7c5.6,0,10.2-4.6,10.2-10.2c0-1.7-0.4-3.3-1.2-4.7
			c1-1.2,2.6-1.9,4.2-1.9c3,0,5.5,2.5,5.5,5.5c0,0,0,0,0,0s0,0,0,0v9.6c0,1,0.8,1.7,1.7,1.7c1,0,1.7-0.8,1.7-1.7v-9.6
			c0-3,2.5-5.5,5.5-5.5c3,0,5.5,2.5,5.5,5.5v9.6c0,1,0.8,1.7,1.7,1.7c1,0,1.7-0.8,1.7-1.7v-9.6C830.3,23,826.3,19,821.3,19z"/>
		<path d="M737.1,19c-5.6,0-10.2,4.6-10.2,10.2c0,5.6,4.6,10.2,10.2,10.2h4.6c1,0,1.7-0.8,1.7-1.7c0-1-0.8-1.7-1.7-1.7h-4.6
			c-3.7,0-6.7-3-6.7-6.7c0-3.7,3-6.7,6.7-6.7c3.1,0,5.7,2.1,6.4,4.9h-6.4c-1,0-1.7,0.8-1.7,1.7c0,1,0.8,1.7,1.7,1.7h8.4
			c1,0,1.7-0.8,1.7-1.7C747.3,23.5,742.7,19,737.1,19z"/>
		<path d="M699.4,19c-5.6,0-10.2,4.6-10.2,10.2c0,5.6,4.6,10.2,10.2,10.2h4.6c1,0,1.7-0.8,1.7-1.7c0-1-0.8-1.7-1.7-1.7h-4.6
			c-3.7,0-6.7-3-6.7-6.7c0-3.7,3-6.7,6.7-6.7c3.1,0,5.7,2.1,6.4,4.9h-6.4c-1,0-1.7,0.8-1.7,1.7c0,1,0.8,1.7,1.7,1.7h8.4
			c1,0,1.7-0.8,1.7-1.7C709.5,23.5,705,19,699.4,19z"/>
		<path d="M714.6,33.6V22.4h1.9c1,0,1.7-0.8,1.7-1.7c0-1-0.8-1.7-1.7-1.7h-1.9v-6.7c0-1-0.8-1.7-1.7-1.7c-1,0-1.7,0.8-1.7,1.7v8.4
			c0,0,0,0,0,0c0,0,0,0,0,0v12.9c0,0.5,0,2.6,1.4,4.2c0.7,0.7,1.9,1.5,3.9,1.5c1,0,1.7-0.8,1.7-1.7s-0.8-1.7-1.7-1.7
			c-0.9,0-1.3-0.3-1.4-0.4c-0.5-0.5-0.5-1.4-0.5-1.6C714.6,33.7,714.6,33.6,714.6,33.6z"/>
		<path d="M723.3,33.6V22.4h1.9c1,0,1.7-0.8,1.7-1.7c0-1-0.8-1.7-1.7-1.7h-1.9v-6.7c0-1-0.8-1.7-1.7-1.7s-1.7,0.8-1.7,1.7v8.4
			c0,0,0,0,0,0c0,0,0,0,0,0v12.9c0,0.5,0,2.6,1.4,4.2c0.7,0.7,1.9,1.5,3.9,1.5c1,0,1.7-0.8,1.7-1.7c0-1-0.8-1.7-1.7-1.7
			c-0.9,0-1.3-0.3-1.4-0.4c-0.5-0.5-0.5-1.4-0.5-1.6C723.3,33.7,723.3,33.6,723.3,33.6z"/>
		<path d="M762.2,20.7c0-1-0.8-1.7-1.7-1.7h-1.1c-5.6,0-10.2,4.6-10.2,10.2v8.4c0,1,0.8,1.7,1.7,1.7s1.7-0.8,1.7-1.7v-8.4
			c0-3.7,3-6.7,6.7-6.7h1.1C761.4,22.4,762.2,21.7,762.2,20.7z"/>
		<circle cx="762.4" cy="37.5" r="1.9"/>
	</g>
	<path fill="#FFFFFF" d="M0,0v50h2500V0H0z M689,21.3l-6.3,16.8c-0.3,0.7-0.9,1.1-1.6,1.1s-1.4-0.4-1.6-1.1l-4.7-12.5l-4.7,12.5
		c-0.3,0.7-0.9,1.1-1.6,1.1c-0.7,0-1.4-0.4-1.6-1.1l-6.3-16.8c-0.3-0.9,0.1-1.9,1-2.2c0.9-0.3,1.9,0.1,2.2,1l4.7,12.5l4.7-12.5
		c0.3-0.7,0.9-1.1,1.6-1.1c0.7,0,1.4,0.4,1.6,1.1l4.7,12.5l4.7-12.5c0.3-0.9,1.3-1.4,2.2-1C688.9,19.4,689.4,20.4,689,21.3z
		 M707.8,30.9h-8.4c-1,0-1.7-0.8-1.7-1.7s0.8-1.7,1.7-1.7h6.4c-0.8-2.8-3.4-4.9-6.4-4.9c-3.7,0-6.7,3-6.7,6.7c0,3.7,3,6.7,6.7,6.7
		h4.6c1,0,1.7,0.8,1.7,1.7c0,1-0.8,1.7-1.7,1.7h-4.6c-5.6,0-10.2-4.6-10.2-10.2S693.8,19,699.4,19s10.2,4.6,10.2,10.2
		C709.5,30.1,708.7,30.9,707.8,30.9z M715.1,35.3c0.1,0.1,0.4,0.4,1.4,0.4c1,0,1.7,0.8,1.7,1.7c0,1-0.8,1.7-1.7,1.7
		c-2,0-3.2-0.8-3.9-1.5c-1.5-1.6-1.5-3.7-1.4-4.2V20.7c0,0,0,0,0,0c0,0,0,0,0,0v-8.4c0-1,0.8-1.7,1.7-1.7c1,0,1.7,0.8,1.7,1.7V19
		h1.9c1,0,1.7,0.8,1.7,1.7c0,1-0.8,1.7-1.7,1.7h-1.9v11.2c0,0,0,0.1,0,0.1C714.5,34,714.6,34.9,715.1,35.3z M723.8,35.4
		c0.1,0.1,0.4,0.4,1.4,0.4c1,0,1.7,0.8,1.7,1.7c0,1-0.8,1.7-1.7,1.7c-2,0-3.2-0.8-3.9-1.5c-1.5-1.6-1.5-3.7-1.4-4.2V20.7
		c0,0,0,0,0,0c0,0,0,0,0,0v-8.4c0-1,0.8-1.7,1.7-1.7s1.7,0.8,1.7,1.7V19h1.9c1,0,1.7,0.8,1.7,1.7c0,1-0.8,1.7-1.7,1.7h-1.9v11.2
		c0,0,0,0.1,0,0.1C723.3,34,723.4,34.9,723.8,35.4z M745.6,30.9h-8.4c-1,0-1.7-0.8-1.7-1.7s0.8-1.7,1.7-1.7h6.4
		c-0.8-2.8-3.4-4.9-6.4-4.9c-3.7,0-6.7,3-6.7,6.7c0,3.7,3,6.7,6.7,6.7h4.6c1,0,1.7,0.8,1.7,1.7c0,1-0.8,1.7-1.7,1.7h-4.6
		c-5.6,0-10.2-4.6-10.2-10.2S731.5,19,737.1,19c5.6,0,10.2,4.6,10.2,10.2C747.3,30.1,746.5,30.9,745.6,30.9z M752.7,29.1v8.4
		c0,1-0.8,1.7-1.7,1.7s-1.7-0.8-1.7-1.7v-8.4c0-5.6,4.6-10.2,10.2-10.2h1.1c1,0,1.7,0.8,1.7,1.7c0,1-0.8,1.7-1.7,1.7h-1.1
		C755.7,22.4,752.7,25.4,752.7,29.1z M762.4,39.5c-1.1,0-1.9-0.9-1.9-1.9c0-1.1,0.9-1.9,1.9-1.9c1.1,0,1.9,0.9,1.9,1.9
		C764.3,38.6,763.4,39.5,762.4,39.5z M830.3,37.5c0,1-0.8,1.7-1.7,1.7c-1,0-1.7-0.8-1.7-1.7v-9.6c0-3-2.5-5.5-5.5-5.5
		c-3,0-5.5,2.5-5.5,5.5v9.6c0,1-0.8,1.7-1.7,1.7c-1,0-1.7-0.8-1.7-1.7v-9.6v0v0c0-3-2.5-5.5-5.5-5.5c-1.6,0-3.1,0.7-4.2,1.9
		c0.8,1.4,1.2,3,1.2,4.7c0,5.6-4.6,10.2-10.2,10.2c-1,0-1.7-0.8-1.7-1.7c0-1,0.8-1.7,1.7-1.7c3.7,0,6.7-3,6.7-6.7
		c0-3.7-3-6.7-6.7-6.7c-3.7,0-6.7,3-6.7,6.7c0,1-0.8,1.7-1.7,1.7c-1,0-1.7-0.8-1.7-1.7c0-4.9,3.5-9.1,8.2-10
		c-0.7-2.9-3.3-5.1-6.5-5.1c-3.7,0-6.7,3-6.7,6.7c0,1-0.8,1.7-1.7,1.7c-3.7,0-6.7,3-6.7,6.7c0,3.7,3,6.7,6.7,6.7h4.6
		c1,0,1.7,0.8,1.7,1.7c0,1-0.8,1.7-1.7,1.7h-4.6c-5.6,0-10.2-4.6-10.2-10.2c0-5.1,3.7-9.3,8.5-10c0.8-4.8,5-8.5,10-8.5
		c5.1,0,9.2,3.7,10,8.6c2,0.3,3.8,1.2,5.2,2.5c1.7-1.7,4-2.6,6.4-2.6c3,0,5.6,1.5,7.2,3.7c1.6-2.2,4.3-3.7,7.2-3.7c5,0,9,4,9,9V37.5
		z"/>
</g>
</svg>
