<?xml version="1.0" encoding="utf-8"?>
<!-- Generator: Adobe Illustrator 18.1.1, SVG Export Plug-In . SVG Version: 6.00 Build 0)  -->
<svg version="1.1" id="Ebene_1" xmlns="http://www.w3.org/2000/svg" xmlns:xlink="http://www.w3.org/1999/xlink" x="0px" y="0px"
	 viewBox="0 0 5000 100" enable-background="new 0 0 5000 100" xml:space="preserve">
<path fill="#FFFFFF" d="M0,0v100h5000V0H0z M1368.8,43.8L1358.2,72c-0.4,1.1-1.5,1.9-2.7,1.9s-2.3-0.8-2.7-1.9l-7.9-21l-7.9,21
	c-0.4,1.1-1.5,1.9-2.7,1.9c-1.2,0-2.3-0.8-2.7-1.9l-10.6-28.2c-0.6-1.5,0.2-3.2,1.7-3.8c1.5-0.6,3.2,0.2,3.8,1.7l7.9,21l7.9-21
	c0.4-1.1,1.5-1.9,2.7-1.9c1.2,0,2.3,0.8,2.7,1.9l7.9,21l7.9-21c0.6-1.5,2.2-2.3,3.8-1.7C1368.6,40.6,1369.4,42.3,1368.8,43.8z
	 M1400.3,59.8h-14.1c-1.6,0-2.9-1.3-2.9-2.9c0-1.6,1.3-2.9,2.9-2.9h10.8c-1.3-4.8-5.6-8.3-10.8-8.3c-6.2,0-11.2,5-11.2,11.2
	c0,6.2,5,11.2,11.2,11.2h7.8c1.6,0,2.9,1.3,2.9,2.9s-1.3,2.9-2.9,2.9h-7.8c-9.4,0-17-7.6-17-17c0-9.4,7.6-17,17-17
	c9.4,0,17,7.6,17,17C1403.2,58.5,1401.9,59.8,1400.3,59.8z M1412.5,67.3c0.2,0.2,0.7,0.7,2.3,0.7c1.6,0,2.9,1.3,2.9,2.9
	s-1.3,2.9-2.9,2.9c-3.4,0-5.4-1.4-6.5-2.6c-2.5-2.6-2.5-6.2-2.4-7V42.8c0,0,0,0,0,0s0,0,0,0V28.7c0-1.6,1.3-2.9,2.9-2.9
	s2.9,1.3,2.9,2.9v11.2h3.1c1.6,0,2.9,1.3,2.9,2.9s-1.3,2.9-2.9,2.9h-3.1v18.7c0,0.1,0,0.1,0,0.2
	C1411.6,65.1,1411.7,66.5,1412.5,67.3z M1427.2,67.4c0.2,0.2,0.7,0.7,2.3,0.7c1.6,0,2.9,1.3,2.9,2.9c0,1.6-1.3,2.9-2.9,2.9
	c-3.4,0-5.4-1.4-6.5-2.6c-2.5-2.6-2.5-6.2-2.4-7V42.8c0,0,0,0,0,0s0,0,0,0V28.7c0-1.6,1.3-2.9,2.9-2.9c1.6,0,2.9,1.3,2.9,2.9v11.2
	h3.1c1.6,0,2.9,1.3,2.9,2.9s-1.3,2.9-2.9,2.9h-3.1v18.7c0,0.1,0,0.1,0,0.2C1426.3,65.1,1426.4,66.6,1427.2,67.4z M1463.6,59.8h-14.1
	c-1.6,0-2.9-1.3-2.9-2.9c0-1.6,1.3-2.9,2.9-2.9h10.8c-1.3-4.8-5.6-8.3-10.8-8.3c-6.2,0-11.2,5-11.2,11.2c0,6.2,5,11.2,11.2,11.2h7.8
	c1.6,0,2.9,1.3,2.9,2.9s-1.3,2.9-2.9,2.9h-7.8c-9.4,0-17-7.6-17-17c0-9.4,7.6-17,17-17c9.4,0,17,7.6,17,17
	C1466.6,58.5,1465.3,59.8,1463.6,59.8z M1475.6,56.9V71c0,1.6-1.3,2.9-2.9,2.9s-2.9-1.3-2.9-2.9V56.9c0-9.4,7.6-17,17-17h1.9
	c1.6,0,2.9,1.3,2.9,2.9s-1.3,2.9-2.9,2.9h-1.9C1480.6,45.7,1475.6,50.7,1475.6,56.9z M1491.8,74.3c-1.8,0-3.2-1.5-3.2-3.2
	c0-1.8,1.5-3.2,3.2-3.2s3.2,1.5,3.2,3.2C1495.1,72.8,1493.6,74.3,1491.8,74.3z M1605.8,71c0,1.6-1.3,2.9-2.9,2.9
	c-1.6,0-2.9-1.3-2.9-2.9V54.9c0-5.1-4.1-9.2-9.2-9.2s-9.2,4.1-9.2,9.2V71c0,1.6-1.3,2.9-2.9,2.9s-2.9-1.3-2.9-2.9V54.9c0,0,0,0,0,0
	s0,0,0,0c0-5.1-4.1-9.2-9.2-9.2c-2.7,0-5.3,1.2-7,3.3c1.3,2.4,2,5.1,2,7.9c0,9.4-7.6,17-17,17c-1.6,0-2.9-1.3-2.9-2.9
	s1.3-2.9,2.9-2.9c6.2,0,11.2-5,11.2-11.2c0-6.2-5-11.2-11.2-11.2c-6.2,0-11.2,5-11.2,11.2c0,1.6-1.3,2.9-2.9,2.9
	c-1.6,0-2.9-1.3-2.9-2.9c0-8.3,6-15.2,13.8-16.7c-1.2-4.9-5.6-8.6-10.9-8.6c-6.2,0-11.2,5-11.2,11.2c0,1.6-1.3,2.9-2.9,2.9
	c-6.2,0-11.2,5-11.2,11.2c0,6.2,5,11.2,11.2,11.2h7.8c1.6,0,2.9,1.3,2.9,2.9s-1.3,2.9-2.9,2.9h-7.8c-9.4,0-17-7.6-17-17
	c0-8.5,6.2-15.5,14.3-16.8c1.3-8.1,8.3-14.3,16.8-14.3c8.5,0,15.5,6.2,16.8,14.4c3.3,0.5,6.3,2,8.7,4.2c2.8-2.8,6.6-4.4,10.7-4.4
	c5,0,9.4,2.4,12.2,6.2c2.7-3.7,7.2-6.2,12.2-6.2c8.3,0,15.1,6.8,15.1,15.1V71z"/>
<g opacity="0.2">
	<path d="M1367.1,40c-1.5-0.6-3.2,0.2-3.8,1.7l-7.9,21l-7.9-21c-0.4-1.1-1.5-1.9-2.7-1.9c-1.2,0-2.3,0.8-2.7,1.9l-7.9,21l-7.9-21
		c-0.6-1.5-2.2-2.3-3.8-1.7c-1.5,0.6-2.3,2.2-1.7,3.8l10.6,28.2c0.4,1.1,1.5,1.9,2.7,1.9c1.2,0,2.3-0.8,2.7-1.9l7.9-21l7.9,21
		c0.4,1.1,1.5,1.9,2.7,1.9s2.3-0.8,2.7-1.9l10.6-28.2C1369.4,42.3,1368.6,40.6,1367.1,40z"/>
	<path d="M1590.8,39.9c-5,0-9.4,2.4-12.2,6.2c-2.7-3.7-7.2-6.2-12.2-6.2c-4,0-7.9,1.6-10.7,4.4c-2.4-2.2-5.4-3.7-8.7-4.2
		c-1.3-8.1-8.3-14.4-16.8-14.4c-8.5,0-15.5,6.2-16.8,14.3c-8.1,1.3-14.3,8.3-14.3,16.8c0,9.4,7.6,17,17,17h7.8
		c1.6,0,2.9-1.3,2.9-2.9s-1.3-2.9-2.9-2.9h-7.8c-6.2,0-11.2-5-11.2-11.2c0-6.2,5-11.2,11.2-11.2c1.6,0,2.9-1.3,2.9-2.9
		c0-6.2,5-11.2,11.2-11.2c5.3,0,9.7,3.7,10.9,8.6c-7.9,1.5-13.8,8.4-13.8,16.7c0,1.6,1.3,2.9,2.9,2.9c1.6,0,2.9-1.3,2.9-2.9
		c0-6.2,5-11.2,11.2-11.2c6.2,0,11.2,5,11.2,11.2c0,6.2-5,11.2-11.2,11.2c-1.6,0-2.9,1.3-2.9,2.9s1.3,2.9,2.9,2.9
		c9.4,0,17-7.6,17-17c0-2.9-0.7-5.6-2-7.9c1.7-2,4.3-3.3,7-3.3c5.1,0,9.2,4.1,9.2,9.2c0,0,0,0,0,0s0,0,0,0V71c0,1.6,1.3,2.9,2.9,2.9
		s2.9-1.3,2.9-2.9V54.9c0-5.1,4.1-9.2,9.2-9.2s9.2,4.1,9.2,9.2V71c0,1.6,1.3,2.9,2.9,2.9c1.6,0,2.9-1.3,2.9-2.9V54.9
		C1605.8,46.6,1599.1,39.9,1590.8,39.9z"/>
	<path d="M1449.5,39.9c-9.4,0-17,7.6-17,17c0,9.4,7.6,17,17,17h7.8c1.6,0,2.9-1.3,2.9-2.9s-1.3-2.9-2.9-2.9h-7.8
		c-6.2,0-11.2-5-11.2-11.2c0-6.2,5-11.2,11.2-11.2c5.2,0,9.5,3.5,10.8,8.3h-10.8c-1.6,0-2.9,1.3-2.9,2.9c0,1.6,1.3,2.9,2.9,2.9h14.1
		c1.6,0,2.9-1.3,2.9-2.9C1466.6,47.5,1458.9,39.9,1449.5,39.9z"/>
	<path d="M1386.2,39.9c-9.4,0-17,7.6-17,17c0,9.4,7.6,17,17,17h7.8c1.6,0,2.9-1.3,2.9-2.9s-1.3-2.9-2.9-2.9h-7.8
		c-6.2,0-11.2-5-11.2-11.2c0-6.2,5-11.2,11.2-11.2c5.2,0,9.5,3.5,10.8,8.3h-10.8c-1.6,0-2.9,1.3-2.9,2.9c0,1.6,1.3,2.9,2.9,2.9h14.1
		c1.6,0,2.9-1.3,2.9-2.9C1403.2,47.5,1395.5,39.9,1386.2,39.9z"/>
	<path d="M1411.6,64.4V45.7h3.1c1.6,0,2.9-1.3,2.9-2.9s-1.3-2.9-2.9-2.9h-3.1V28.7c0-1.6-1.3-2.9-2.9-2.9s-2.9,1.3-2.9,2.9v14.1
		c0,0,0,0,0,0s0,0,0,0v21.6c0,0.8,0,4.4,2.4,7c1.1,1.2,3.1,2.6,6.5,2.6c1.6,0,2.9-1.3,2.9-2.9s-1.3-2.9-2.9-2.9
		c-1.6,0-2.1-0.6-2.3-0.7c-0.8-0.8-0.9-2.3-0.9-2.7C1411.6,64.5,1411.6,64.5,1411.6,64.4z"/>
	<path d="M1426.3,64.4V45.7h3.1c1.6,0,2.9-1.3,2.9-2.9s-1.3-2.9-2.9-2.9h-3.1V28.7c0-1.6-1.3-2.9-2.9-2.9c-1.6,0-2.9,1.3-2.9,2.9
		v14.1c0,0,0,0,0,0s0,0,0,0v21.6c0,0.8,0,4.4,2.4,7c1.1,1.2,3.1,2.6,6.5,2.6c1.6,0,2.9-1.3,2.9-2.9c0-1.6-1.3-2.9-2.9-2.9
		c-1.6,0-2.1-0.6-2.3-0.7c-0.8-0.8-0.9-2.3-0.9-2.7C1426.3,64.6,1426.3,64.5,1426.3,64.4z"/>
	<path d="M1491.6,42.8c0-1.6-1.3-2.9-2.9-2.9h-1.9c-9.4,0-17,7.6-17,17V71c0,1.6,1.3,2.9,2.9,2.9s2.9-1.3,2.9-2.9V56.9
		c0-6.2,5-11.2,11.2-11.2h1.9C1490.3,45.7,1491.6,44.4,1491.6,42.8z"/>
	<circle cx="1491.8" cy="71" r="3.2"/>
</g>
</svg>
