<?xml version="1.0" encoding="utf-8"?>
<!-- Generator: Adobe Illustrator 18.1.1, SVG Export Plug-In . SVG Version: 6.00 Build 0)  -->
<svg version="1.1" id="Ebene_1" xmlns="http://www.w3.org/2000/svg" xmlns:xlink="http://www.w3.org/1999/xlink" x="0px" y="0px"
	 viewBox="0 0 2560 100" enable-background="new 0 0 2560 100" xml:space="preserve">
<path fill="#FFFFFF" d="M0,0v100h2560V0H0z M655.6,46.9l-3.2,9.4c-0.1,0.4-0.5,0.6-0.8,0.6c-0.4,0-0.7-0.3-0.8-0.6l-2.4-7l-2.4,7
	c-0.1,0.4-0.5,0.6-0.8,0.6c-0.4,0-0.7-0.3-0.8-0.6l-3.2-9.4c-0.2-0.5,0.1-1.1,0.5-1.3s1,0.1,1.2,0.6l2.4,7l2.4-7
	c0.1-0.4,0.5-0.6,0.8-0.6c0.4,0,0.7,0.3,0.8,0.6l2.4,7l2.4-7c0.2-0.5,0.7-0.8,1.2-0.6C655.5,45.9,655.7,46.4,655.6,46.9z
	 M665.2,52.3h-4.3c-0.5,0-0.9-0.4-0.9-1c0-0.5,0.4-1,0.9-1h3.3c-0.4-1.6-1.7-2.8-3.3-2.8c-1.9,0-3.4,1.7-3.4,3.8
	c0,2.1,1.5,3.8,3.4,3.8h2.4c0.5,0,0.9,0.4,0.9,1s-0.4,1-0.9,1h-2.4c-2.9,0-5.2-2.6-5.2-5.7c0-3.1,2.3-5.7,5.2-5.7
	c2.9,0,5.2,2.6,5.2,5.7C666,51.8,665.6,52.3,665.2,52.3z M668.9,54.8c0.1,0.1,0.2,0.3,0.7,0.3s0.9,0.4,0.9,1s-0.4,1-0.9,1
	c-1,0-1.7-0.5-2-0.9c-0.7-0.9-0.7-2.1-0.7-2.3v-7.2l0,0l0,0v-4.7c0-0.5,0.4-1,0.9-1c0.5,0,0.9,0.4,0.9,1v3.8h0.9
	c0.5,0,0.9,0.4,0.9,1s-0.4,1-0.9,1h-0.9v6.2c0,0,0,0.1,0,0.1C668.6,54,668.7,54.5,668.9,54.8z M673.4,54.8c0.1,0.1,0.2,0.3,0.7,0.3
	s0.9,0.4,0.9,1s-0.4,1-0.9,1c-1,0-1.7-0.5-2-0.9c-0.7-0.9-0.7-2.1-0.7-2.3v-7.2l0,0l0,0v-4.7c0-0.5,0.4-1,0.9-1s0.9,0.4,0.9,1v3.8
	h0.9c0.5,0,0.9,0.4,0.9,1s-0.4,1-0.9,1h-0.9v6.3c0,0,0,0.1,0,0.1C673.1,54,673.1,54.5,673.4,54.8z M684.5,52.3h-4.3
	c-0.5,0-0.9-0.4-0.9-1c0-0.5,0.4-1,0.9-1h3.3c-0.4-1.6-1.7-2.8-3.3-2.8c-1.9,0-3.4,1.7-3.4,3.8c0,2.1,1.5,3.8,3.4,3.8h2.4
	c0.5,0,0.9,0.4,0.9,1s-0.4,1-0.9,1h-2.4c-2.9,0-5.2-2.6-5.2-5.7c0-3.1,2.3-5.7,5.2-5.7s5.2,2.6,5.2,5.7
	C685.4,51.8,685,52.3,684.5,52.3z M688.1,51.3V56c0,0.5-0.4,1-0.9,1s-0.9-0.4-0.9-1v-4.7c0-3.1,2.3-5.7,5.2-5.7h0.6
	c0.5,0,0.9,0.4,0.9,1s-0.4,1-0.9,1h-0.6C689.7,47.5,688.1,49.2,688.1,51.3z M1030.3,47.1c-0.5,0-1-0.5-1-1.1c0-0.6,0.4-1.1,1-1.1
	c0.5,0,1,0.5,1,1.1S1030.9,47.1,1030.3,47.1z M727.9,56c0,0.5-0.4,1-0.9,1c-0.5,0-0.9-0.4-0.9-1v-5.4c0-1.7-1.3-3.1-2.8-3.1
	s-2.8,1.4-2.8,3.1V56c0,0.5-0.4,1-0.9,1c-0.5,0-0.9-0.4-0.9-1v-5.4l0,0l0,0c0-1.7-1.3-3.1-2.8-3.1c-0.8,0-1.6,0.4-2.2,1.1
	c0.4,0.8,0.6,1.7,0.6,2.7c0,3.1-2.3,5.7-5.2,5.7c-0.5,0-0.9-0.4-0.9-1s0.4-1,0.9-1c1.9,0,3.4-1.7,3.4-3.8c0-2.1-1.5-3.8-3.4-3.8
	s-3.4,1.7-3.4,3.8c0,0.5-0.4,1-0.9,1s-0.9-0.4-0.9-1c0-2.8,1.8-5.1,4.2-5.6c-0.4-1.7-1.7-2.9-3.3-2.9c-1.9,0-3.4,1.7-3.4,3.8
	c0,0.5-0.4,1-0.9,1c-1.9,0-3.4,1.7-3.4,3.8c0,2.1,1.5,3.8,3.4,3.8h2.4c0.5,0,0.9,0.4,0.9,1c0,0.5-0.4,1-0.9,1h-2.4
	c-2.9,0-5.2-2.6-5.2-5.7c0-2.8,1.9-5.2,4.4-5.6c0.4-2.7,2.6-4.8,5.1-4.8c2.6,0,4.7,2.1,5.1,4.8c1,0.2,1.9,0.7,2.7,1.4
	c0.8-0.9,2-1.5,3.3-1.5c1.5,0,2.9,0.8,3.7,2.1c0.8-1.3,2.2-2.1,3.7-2.1c2.5,0,4.6,2.3,4.6,5L727.9,56L727.9,56z"/>
</svg>
