<?xml version="1.0" encoding="utf-8"?>
<!-- Generator: Adobe Illustrator 18.1.1, SVG Export Plug-In . SVG Version: 6.00 Build 0)  -->
<svg version="1.1" id="Ebene_1" xmlns="http://www.w3.org/2000/svg" xmlns:xlink="http://www.w3.org/1999/xlink" x="0px" y="0px"
	 viewBox="0 0 5000 100" enable-background="new 0 0 5000 100" xml:space="preserve">
<path fill="#FFFFFF" d="M0.3,0.1v100h5000V0.1H0.3z M1378.4,42.7l-12.6,33.7c-0.5,1.4-1.8,2.3-3.3,2.3c-1.4,0-2.7-0.9-3.3-2.3
	l-9.4-25l-9.4,25c-0.5,1.4-1.8,2.3-3.3,2.3s-2.7-0.9-3.3-2.3l-12.6-33.7c-0.7-1.8,0.2-3.8,2-4.5c1.8-0.7,3.8,0.2,4.5,2l9.4,25
	l9.4-25c0.5-1.4,1.8-2.3,3.3-2.3c1.4,0,2.7,0.9,3.3,2.3l9.4,25l9.4-25c0.7-1.8,2.7-2.7,4.5-2C1378.1,38.9,1379,40.9,1378.4,42.7z
	 M1415.9,61.8h-16.8c-1.9,0-3.5-1.6-3.5-3.5s1.6-3.5,3.5-3.5h12.9c-1.5-5.7-6.7-9.9-12.9-9.9c-7.4,0-13.4,6-13.4,13.4
	c0,7.4,6,13.4,13.4,13.4h9.3c1.9,0,3.5,1.6,3.5,3.5c0,1.9-1.6,3.5-3.5,3.5h-9.3c-11.2,0-20.3-9.1-20.3-20.3s9.1-20.3,20.3-20.3
	s20.3,9.1,20.3,20.3C1419.4,60.2,1417.8,61.8,1415.9,61.8z M1430.5,70.8c0.2,0.2,0.8,0.9,2.7,0.9c1.9,0,3.5,1.6,3.5,3.5
	c0,1.9-1.6,3.5-3.5,3.5c-4.1,0-6.5-1.7-7.8-3.1c-2.9-3.1-2.9-7.4-2.9-8.3V41.5c0,0,0,0,0,0c0,0,0,0,0,0V24.6c0-1.9,1.6-3.5,3.5-3.5
	c1.9,0,3.5,1.6,3.5,3.5V38h3.7c1.9,0,3.5,1.6,3.5,3.5c0,1.9-1.6,3.5-3.5,3.5h-3.7v22.3c0,0.1,0,0.2,0,0.2
	C1429.4,68,1429.6,69.8,1430.5,70.8z M1448,70.8c0.2,0.2,0.8,0.9,2.7,0.9c1.9,0,3.5,1.6,3.5,3.5c0,1.9-1.6,3.5-3.5,3.5
	c-4.1,0-6.5-1.7-7.8-3.1c-2.9-3.1-2.9-7.4-2.9-8.3V41.5c0,0,0,0,0,0c0,0,0,0,0,0V24.6c0-1.9,1.6-3.5,3.5-3.5s3.5,1.6,3.5,3.5V38h3.7
	c1.9,0,3.5,1.6,3.5,3.5c0,1.9-1.6,3.5-3.5,3.5h-3.7v22.4c0,0.1,0,0.2,0,0.2C1446.9,68.1,1447.1,69.8,1448,70.8z M1491.5,61.8h-16.8
	c-1.9,0-3.5-1.6-3.5-3.5s1.6-3.5,3.5-3.5h12.9c-1.5-5.7-6.7-9.9-12.9-9.9c-7.4,0-13.4,6-13.4,13.4c0,7.4,6,13.4,13.4,13.4h9.3
	c1.9,0,3.5,1.6,3.5,3.5c0,1.9-1.6,3.5-3.5,3.5h-9.3c-11.2,0-20.3-9.1-20.3-20.3s9.1-20.3,20.3-20.3c11.2,0,20.3,9.1,20.3,20.3
	C1494.9,60.2,1493.4,61.8,1491.5,61.8z M1505.7,58.3v16.8c0,1.9-1.6,3.5-3.5,3.5c-1.9,0-3.5-1.6-3.5-3.5V58.3
	c0-11.2,9.1-20.3,20.3-20.3h2.2c1.9,0,3.5,1.6,3.5,3.5c0,1.9-1.6,3.5-3.5,3.5h-2.2C1511.7,44.9,1505.7,50.9,1505.7,58.3z M1525,79
	c-2.1,0-3.9-1.7-3.9-3.9c0-2.1,1.7-3.9,3.9-3.9c2.1,0,3.9,1.7,3.9,3.9C1528.9,77.3,1527.2,79,1525,79z M1661,75.2
	c0,1.9-1.6,3.5-3.5,3.5c-1.9,0-3.5-1.6-3.5-3.5V56c0-6.1-4.9-11-11-11c-6.1,0-11,4.9-11,11v19.2c0,1.9-1.6,3.5-3.5,3.5
	c-1.9,0-3.5-1.6-3.5-3.5V56c0,0,0,0,0,0s0,0,0,0c0-6.1-4.9-11-11-11c-3.2,0-6.3,1.5-8.4,3.9c1.5,2.8,2.4,6.1,2.4,9.5
	c0,11.2-9.1,20.3-20.3,20.3c-1.9,0-3.5-1.6-3.5-3.5c0-1.9,1.6-3.5,3.5-3.5c7.4,0,13.4-6,13.4-13.4c0-7.4-6-13.4-13.4-13.4
	c-7.4,0-13.4,6-13.4,13.4c0,1.9-1.6,3.5-3.5,3.5c-1.9,0-3.5-1.6-3.5-3.5c0-9.9,7.1-18.1,16.5-19.9c-1.4-5.9-6.7-10.3-13-10.3
	c-7.4,0-13.4,6-13.4,13.4c0,1.9-1.6,3.5-3.5,3.5c-7.4,0-13.4,6-13.4,13.4c0,7.4,6,13.4,13.4,13.4h9.3c1.9,0,3.5,1.6,3.5,3.5
	c0,1.9-1.6,3.5-3.5,3.5h-9.3c-11.2,0-20.3-9.1-20.3-20.3c0-10.1,7.4-18.5,17.1-20.1c1.5-9.7,10-17.1,20.1-17.1
	c10.1,0,18.5,7.4,20,17.1c4,0.6,7.6,2.4,10.4,5c3.3-3.3,7.9-5.3,12.7-5.3c6,0,11.2,2.9,14.5,7.4c3.3-4.5,8.5-7.4,14.5-7.4
	c9.9,0,18,8.1,18,18V75.2z"/>
</svg>
