<?xml version="1.0" encoding="utf-8"?>
<!-- Generator: Adobe Illustrator 18.1.1, SVG Export Plug-In . SVG Version: 6.00 Build 0)  -->
<svg version="1.1" id="Ebene_1" xmlns="http://www.w3.org/2000/svg" xmlns:xlink="http://www.w3.org/1999/xlink" x="0px" y="0px"
	 viewBox="0 0 841.9 595.3" enable-background="new 0 0 841.9 595.3" xml:space="preserve">
<path fill="#FFFFFF" d="M0.1,289.2v30h841.9v-30H0.1z M122.1,302.4l-2.1,5.7c-0.1,0.2-0.3,0.4-0.6,0.4c-0.2,0-0.5-0.2-0.6-0.4
	l-1.6-4.2l-1.6,4.2c-0.1,0.2-0.3,0.4-0.6,0.4c-0.3,0-0.5-0.2-0.6-0.4l-2.1-5.7c-0.1-0.3,0-0.6,0.3-0.8c0.3-0.1,0.6,0,0.8,0.3
	l1.6,4.2l1.6-4.2c0.1-0.2,0.3-0.4,0.6-0.4c0.2,0,0.5,0.2,0.6,0.4l1.6,4.2l1.6-4.2c0.1-0.3,0.5-0.5,0.8-0.3
	C122,301.8,122.2,302.1,122.1,302.4z M128.4,305.6h-2.8c-0.3,0-0.6-0.3-0.6-0.6s0.3-0.6,0.6-0.6h2.2c-0.3-1-1.1-1.7-2.2-1.7
	c-1.2,0-2.3,1-2.3,2.3s1,2.3,2.3,2.3h1.6c0.3,0,0.6,0.3,0.6,0.6s-0.3,0.6-0.6,0.6h-1.6c-1.9,0-3.4-1.5-3.4-3.4s1.5-3.4,3.4-3.4
	c1.9,0,3.4,1.5,3.4,3.4C129,305.4,128.7,305.6,128.4,305.6z M130.9,307.1c0,0,0.1,0.2,0.5,0.2c0.3,0,0.6,0.3,0.6,0.6
	s-0.3,0.6-0.6,0.6c-0.7,0-1.1-0.3-1.3-0.5c-0.5-0.5-0.5-1.2-0.5-1.4v-4.3l0,0l0,0v-2.8c0-0.3,0.3-0.6,0.6-0.6c0.3,0,0.6,0.3,0.6,0.6
	v2.3h0.6c0.3,0,0.6,0.3,0.6,0.6c0,0.3-0.3,0.6-0.6,0.6h-0.6v3.8c0,0,0,0,0,0C130.7,306.7,130.7,307,130.9,307.1z M133.8,307.1
	c0,0,0.1,0.2,0.5,0.2c0.3,0,0.6,0.3,0.6,0.6s-0.3,0.6-0.6,0.6c-0.7,0-1.1-0.3-1.3-0.5c-0.5-0.5-0.5-1.2-0.5-1.4v-4.3l0,0l0,0v-2.8
	c0-0.3,0.3-0.6,0.6-0.6c0.3,0,0.6,0.3,0.6,0.6v2.3h0.6c0.3,0,0.6,0.3,0.6,0.6c0,0.3-0.3,0.6-0.6,0.6h-0.6v3.8c0,0,0,0,0,0
	C133.6,306.7,133.7,307,133.8,307.1z M141.1,305.6h-2.8c-0.3,0-0.6-0.3-0.6-0.6s0.3-0.6,0.6-0.6h2.2c-0.3-1-1.1-1.7-2.2-1.7
	c-1.2,0-2.3,1-2.3,2.3s1,2.3,2.3,2.3h1.6c0.3,0,0.6,0.3,0.6,0.6s-0.3,0.6-0.6,0.6h-1.6c-1.9,0-3.4-1.5-3.4-3.4s1.5-3.4,3.4-3.4
	c1.9,0,3.4,1.5,3.4,3.4C141.7,305.4,141.5,305.6,141.1,305.6z M143.5,305v2.8c0,0.3-0.3,0.6-0.6,0.6c-0.3,0-0.6-0.3-0.6-0.6V305
	c0-1.9,1.5-3.4,3.4-3.4h0.4c0.3,0,0.6,0.3,0.6,0.6c0,0.3-0.3,0.6-0.6,0.6h-0.4C144.5,302.8,143.5,303.8,143.5,305z M256.8,302.5
	c-0.4,0-0.7-0.3-0.7-0.7c0-0.4,0.3-0.7,0.7-0.7c0.4,0,0.7,0.3,0.7,0.7C257.4,302.2,257.1,302.5,256.8,302.5z M169.7,307.9
	c0,0.3-0.3,0.6-0.6,0.6c-0.3,0-0.6-0.3-0.6-0.6v-3.2c0-1-0.8-1.9-1.9-1.9s-1.9,0.8-1.9,1.9v3.2c0,0.3-0.3,0.6-0.6,0.6
	c-0.3,0-0.6-0.3-0.6-0.6v-3.2l0,0l0,0c0-1-0.8-1.9-1.9-1.9c-0.5,0-1.1,0.3-1.4,0.7c0.3,0.5,0.4,1,0.4,1.6c0,1.9-1.5,3.4-3.4,3.4
	c-0.3,0-0.6-0.3-0.6-0.6s0.3-0.6,0.6-0.6c1.2,0,2.3-1,2.3-2.3s-1-2.3-2.3-2.3s-2.3,1-2.3,2.3c0,0.3-0.3,0.6-0.6,0.6
	s-0.6-0.3-0.6-0.6c0-1.7,1.2-3,2.8-3.4c-0.2-1-1.1-1.7-2.2-1.7c-1.2,0-2.3,1-2.3,2.3c0,0.3-0.3,0.6-0.6,0.6c-1.2,0-2.3,1-2.3,2.3
	s1,2.3,2.3,2.3h1.6c0.3,0,0.6,0.3,0.6,0.6s-0.3,0.6-0.6,0.6h-1.6c-1.9,0-3.4-1.5-3.4-3.4c0-1.7,1.2-3.1,2.9-3.4
	c0.3-1.6,1.7-2.9,3.4-2.9c1.7,0,3.1,1.2,3.4,2.9c0.7,0.1,1.3,0.4,1.8,0.8c0.6-0.6,1.3-0.9,2.1-0.9c1,0,1.9,0.5,2.4,1.2
	c0.6-0.8,1.4-1.2,2.4-1.2c1.7,0,3,1.4,3,3L169.7,307.9L169.7,307.9z"/>
</svg>
