<?xml version="1.0" encoding="utf-8"?>
<!-- Generator: Adobe Illustrator 18.1.1, SVG Export Plug-In . SVG Version: 6.00 Build 0)  -->
<svg version="1.1" id="Ebene_1" xmlns="http://www.w3.org/2000/svg" xmlns:xlink="http://www.w3.org/1999/xlink" x="0px" y="0px"
	 viewBox="0 0 36 36" enable-background="new 0 0 36 36" xml:space="preserve">
<g>
	<g>
		<path fill="#737373" d="M14.5,28.8c-7.9,0-14.4-6.4-14.4-14.4S6.5,0.1,14.5,0.1c7.9,0,14.4,6.4,14.4,14.4S22.4,28.8,14.5,28.8z
			 M14.5,3.1C8.2,3.1,3.1,8.2,3.1,14.5s5.1,11.4,11.4,11.4c6.3,0,11.4-5.1,11.4-11.4S20.7,3.1,14.5,3.1z"/>
	</g>
	<g>
		<path fill="#737373" d="M34.4,35.9c-0.4,0-0.8-0.1-1.1-0.4l-8.6-8.6c-0.6-0.6-0.6-1.5,0-2.1c0.6-0.6,1.5-0.6,2.1,0l8.6,8.6
			c0.6,0.6,0.6,1.5,0,2.1C35.2,35.7,34.8,35.9,34.4,35.9z"/>
	</g>
</g>
</svg>
