<?xml version="1.0" encoding="utf-8"?>
<!-- Generator: Adobe Illustrator 18.1.1, SVG Export Plug-In . SVG Version: 6.00 Build 0)  -->
<svg version="1.1" id="Ebene_1" xmlns="http://www.w3.org/2000/svg" xmlns:xlink="http://www.w3.org/1999/xlink" x="0px" y="0px"
	 viewBox="0 0 600 100" enable-background="new 0 0 600 100" xml:space="preserve">
<path fill="#FFFFFF" d="M0,0v100h600V0H0z M68.8,43.8L58.2,72c-0.4,1.1-1.5,1.9-2.7,1.9c-1.2,0-2.3-0.8-2.7-1.9l-7.9-21L37,72
	c-0.4,1.1-1.5,1.9-2.7,1.9c-1.2,0-2.3-0.8-2.7-1.9L20.9,43.8c-0.6-1.5,0.2-3.2,1.7-3.8c1.5-0.6,3.2,0.2,3.8,1.7l7.9,21l7.9-21
	c0.4-1.1,1.5-1.9,2.7-1.9c1.2,0,2.3,0.8,2.7,1.9l7.9,21l7.9-21c0.6-1.5,2.2-2.3,3.8-1.7C68.6,40.6,69.4,42.3,68.8,43.8z M100.3,59.8
	H86.2c-1.6,0-2.9-1.3-2.9-2.9c0-1.6,1.3-2.9,2.9-2.9H97c-1.3-4.8-5.6-8.3-10.8-8.3c-6.2,0-11.2,5-11.2,11.2c0,6.2,5,11.2,11.2,11.2
	h7.8c1.6,0,2.9,1.3,2.9,2.9s-1.3,2.9-2.9,2.9h-7.8c-9.4,0-17-7.6-17-17c0-9.4,7.6-17,17-17s17,7.6,17,17
	C103.2,58.5,101.9,59.8,100.3,59.8z M112.5,67.3c0.2,0.2,0.7,0.7,2.3,0.7c1.6,0,2.9,1.3,2.9,2.9s-1.3,2.9-2.9,2.9
	c-3.4,0-5.4-1.4-6.5-2.6c-2.5-2.6-2.5-6.2-2.4-7V42.8c0,0,0,0,0,0s0,0,0,0V28.7c0-1.6,1.3-2.9,2.9-2.9s2.9,1.3,2.9,2.9v11.2h3.1
	c1.6,0,2.9,1.3,2.9,2.9s-1.3,2.9-2.9,2.9h-3.1v18.7c0,0.1,0,0.1,0,0.2C111.6,65.1,111.7,66.5,112.5,67.3z M127.2,67.4
	c0.2,0.2,0.7,0.7,2.3,0.7c1.6,0,2.9,1.3,2.9,2.9c0,1.6-1.3,2.9-2.9,2.9c-3.4,0-5.4-1.4-6.5-2.6c-2.5-2.6-2.5-6.2-2.4-7V42.8
	c0,0,0,0,0,0s0,0,0,0V28.7c0-1.6,1.3-2.9,2.9-2.9s2.9,1.3,2.9,2.9v11.2h3.1c1.6,0,2.9,1.3,2.9,2.9s-1.3,2.9-2.9,2.9h-3.1v18.7
	c0,0.1,0,0.1,0,0.2C126.3,65.1,126.4,66.6,127.2,67.4z M163.6,59.8h-14.1c-1.6,0-2.9-1.3-2.9-2.9c0-1.6,1.3-2.9,2.9-2.9h10.8
	c-1.3-4.8-5.6-8.3-10.8-8.3c-6.2,0-11.2,5-11.2,11.2c0,6.2,5,11.2,11.2,11.2h7.8c1.6,0,2.9,1.3,2.9,2.9s-1.3,2.9-2.9,2.9h-7.8
	c-9.4,0-17-7.6-17-17c0-9.4,7.6-17,17-17c9.4,0,17,7.6,17,17C166.6,58.5,165.3,59.8,163.6,59.8z M175.6,56.9V71
	c0,1.6-1.3,2.9-2.9,2.9s-2.9-1.3-2.9-2.9V56.9c0-9.4,7.6-17,17-17h1.9c1.6,0,2.9,1.3,2.9,2.9c0,1.6-1.3,2.9-2.9,2.9h-1.9
	C180.6,45.7,175.6,50.7,175.6,56.9z M191.8,74.3c-1.8,0-3.2-1.5-3.2-3.2c0-1.8,1.5-3.2,3.2-3.2c1.8,0,3.2,1.5,3.2,3.2
	C195.1,72.8,193.6,74.3,191.8,74.3z M305.8,71c0,1.6-1.3,2.9-2.9,2.9S300,72.6,300,71V54.9c0-5.1-4.1-9.2-9.2-9.2
	c-5.1,0-9.2,4.1-9.2,9.2V71c0,1.6-1.3,2.9-2.9,2.9c-1.6,0-2.9-1.3-2.9-2.9V54.9c0,0,0,0,0,0s0,0,0,0c0-5.1-4.1-9.2-9.2-9.2
	c-2.7,0-5.3,1.2-7,3.3c1.3,2.4,2,5.1,2,7.9c0,9.4-7.6,17-17,17c-1.6,0-2.9-1.3-2.9-2.9s1.3-2.9,2.9-2.9c6.2,0,11.2-5,11.2-11.2
	c0-6.2-5-11.2-11.2-11.2c-6.2,0-11.2,5-11.2,11.2c0,1.6-1.3,2.9-2.9,2.9s-2.9-1.3-2.9-2.9c0-8.3,6-15.2,13.8-16.7
	c-1.2-4.9-5.6-8.6-10.9-8.6c-6.2,0-11.2,5-11.2,11.2c0,1.6-1.3,2.9-2.9,2.9c-6.2,0-11.2,5-11.2,11.2c0,6.2,5,11.2,11.2,11.2h7.8
	c1.6,0,2.9,1.3,2.9,2.9s-1.3,2.9-2.9,2.9h-7.8c-9.4,0-17-7.6-17-17c0-8.5,6.2-15.5,14.3-16.8c1.3-8.1,8.3-14.3,16.8-14.3
	c8.5,0,15.5,6.2,16.8,14.4c3.3,0.5,6.3,2,8.7,4.2c2.8-2.8,6.6-4.4,10.7-4.4c5,0,9.4,2.4,12.2,6.2c2.7-3.7,7.2-6.2,12.2-6.2
	c8.3,0,15.1,6.8,15.1,15.1V71z"/>
</svg>
