<?xml version="1.0" encoding="utf-8"?>
<!-- Generator: Adobe Illustrator 18.1.1, SVG Export Plug-In . SVG Version: 6.00 Build 0)  -->
<svg version="1.1" id="Ebene_1" xmlns="http://www.w3.org/2000/svg" xmlns:xlink="http://www.w3.org/1999/xlink" x="0px" y="0px"
	 viewBox="0 0 120 100" enable-background="new 0 0 120 100" xml:space="preserve">
<path d="M65.4,68.9c0,1.7,1.2,3.1,2.8,3.4C66.6,72,65.4,70.5,65.4,68.9z"/>
<g>
	<path fill="#737373" d="M37.3,65.4h-12C15.2,65.4,7,57.2,7,47.1C7,37,15.2,28.8,25.3,28.8c1.9,0,3.5-1.6,3.5-3.5
		C28.8,15.2,37,7,47.1,7c7.9,0,14.7,5.1,17.2,12.2c1.5-0.2,3-0.4,4.6-0.4c0.9,0,1.8,0,2.7,0.1C68.7,8,58.8,0,47.1,0
		C34.2,0,23.6,9.6,22,22C9.6,23.6,0,34.2,0,47.1C0,61,11.3,72.4,25.3,72.4h12c1.9,0,3.5-1.6,3.5-3.5C40.8,66.9,39.2,65.4,37.3,65.4z
		"/>
	<path fill="#737373" d="M72.1,65.1c-0.1-0.5-0.2-1-0.3-1.5c-0.1-0.5-0.2-1-0.4-1.5c-2.4-8.5-9.1-15.3-17.6-17.6
		c-0.5-0.1-1-0.3-1.5-0.4c-0.5-0.1-1-0.2-1.5-0.3c-1.2-0.2-2.5-0.3-3.8-0.3h-3.3h-1.5h-1.5H25.3c-1.9,0-3.5,1.6-3.5,3.5
		c0,1.9,1.6,3.5,3.5,3.5h16.3h1.9h3.6c1.1,0,2.2,0.1,3.2,0.3c0.6,0.1,1.2,0.2,1.7,0.4c6.1,1.7,10.9,6.5,12.6,12.6
		c0.2,0.6,0.3,1.2,0.4,1.7c0.2,1,0.3,2.1,0.3,3.2c0,1.7,1.2,3.1,2.8,3.4c0.2,0,0.5,0.1,0.7,0.1c1.9,0,3.5-1.6,3.5-3.5
		C72.4,67.6,72.3,66.3,72.1,65.1z"/>
</g>
<g>
	<path fill="#FADE0A" d="M72.1,22c-1.1-0.1-2.2-0.2-3.3-0.2c-1.3,0-2.6,0.1-3.8,0.3c-11,1.7-19.7,10.5-21.2,21.5h3.3
		c1.3,0,2.6,0.1,3.8,0.3c1.5-8.5,9-15.1,18-15.1c0,0,0,0,0,0c0,0,0,0,0,0c10.1,0,18.3,8.2,18.3,18.3c0,9-6.5,16.5-15.1,18
		c0.2,1.2,0.3,2.5,0.3,3.8c0,1.9-1.6,3.5-3.5,3.5c13.9,0,25.3-11.3,25.3-25.3C94.1,34.2,84.5,23.6,72.1,22z"/>
	<path fill="#FADE0A" d="M92.6,26.8c0.9,0,1.8-0.3,2.5-1l7.6-7.6c1.4-1.4,1.4-3.6,0-4.9c-1.4-1.4-3.6-1.4-5,0l-7.6,7.6
		c-1.4,1.4-1.4,3.6,0,5C90.8,26.5,91.7,26.8,92.6,26.8z"/>
	<path fill="#FADE0A" d="M113.1,43.6h-10.7c-1.9,0-3.5,1.6-3.5,3.5c0,1.9,1.6,3.5,3.5,3.5h10.7c1.9,0,3.5-1.6,3.5-3.5
		C116.6,45.1,115,43.6,113.1,43.6z"/>
	<path fill="#FADE0A" d="M95,68.3c-1.4-1.4-3.6-1.4-4.9,0c-1.4,1.4-1.4,3.6,0,4.9l7.6,7.6c0.7,0.7,1.6,1,2.5,1s1.8-0.3,2.5-1
		c1.4-1.4,1.4-3.6,0-4.9L95,68.3z"/>
</g>
</svg>
