<?xml version="1.0" encoding="utf-8"?>
<!-- Generator: Adobe Illustrator 18.1.1, SVG Export Plug-In . SVG Version: 6.00 Build 0)  -->
<svg version="1.1" id="Ebene_2" xmlns="http://www.w3.org/2000/svg" xmlns:xlink="http://www.w3.org/1999/xlink" x="0px" y="0px"
	 viewBox="0 0 100 100" enable-background="new 0 0 100 100" xml:space="preserve">
<g>
	<path fill="#FADE0A" d="M17.1,95.7c-1.1,0-2.1-0.5-2.8-1.4c-1.2-1.5-0.9-3.7,0.7-4.9l14.4-11L16.6,71c-1-0.6-1.7-1.6-1.7-2.8
		c-0.1-1.2,0.4-2.3,1.4-3L34.7,51c1.5-1.2,3.7-0.9,4.9,0.7c1.2,1.5,0.9,3.7-0.7,4.9l-14.4,11L37.4,75c1,0.6,1.7,1.6,1.7,2.8
		c0.1,1.2-0.4,2.3-1.4,3L19.3,95C18.6,95.4,17.9,95.7,17.1,95.7z"/>
</g>
<g>
	<path fill="#737373" d="M68.9,72.4c-1.9,0-3.5-1.6-3.5-3.5s1.6-3.5,3.5-3.5c10.1,0,18.3-8.2,18.3-18.3c0-10.1-8.2-18.3-18.3-18.3
		S50.6,37,50.6,47.1c0,1.9-1.6,3.5-3.5,3.5s-3.5-1.6-3.5-3.5c0-13.9,11.3-25.3,25.3-25.3s25.3,11.3,25.3,25.3
		C94.1,61,82.8,72.4,68.9,72.4z"/>
</g>
<g>
	<path fill="#737373" d="M3.5,50.6C1.6,50.6,0,49,0,47.1C0,34.2,9.6,23.6,22,22C23.6,9.6,34.2,0,47.1,0C61,0,72.4,11.3,72.4,25.3
		c0,1.9-1.6,3.5-3.5,3.5s-3.5-1.6-3.5-3.5C65.4,15.2,57.1,7,47.1,7C37,7,28.8,15.2,28.8,25.3c0,1.9-1.6,3.5-3.5,3.5
		C15.2,28.8,7,37,7,47.1C7,49,5.4,50.6,3.5,50.6z"/>
</g>
</svg>
