<?xml version="1.0" encoding="utf-8"?>
<!-- Generator: Adobe Illustrator 18.1.1, SVG Export Plug-In . SVG Version: 6.00 Build 0)  -->
<svg version="1.1" id="Ebene_2" xmlns="http://www.w3.org/2000/svg" xmlns:xlink="http://www.w3.org/1999/xlink" x="0px" y="0px"
	 viewBox="0 0 100 100" enable-background="new 0 0 100 100" xml:space="preserve">
<path fill="#737373" d="M72.1,22C70.5,9.6,59.9,0,47.1,0C34.2,0,23.6,9.6,22,22C9.6,23.6,0,34.2,0,47.1C0,61,11.3,72.4,25.3,72.4
	l0,0c0,0,0,0,0,0h12c1.9,0,3.5-1.6,3.5-3.5c0-1.9-1.6-3.5-3.5-3.5h-12C15.2,65.4,7,57.1,7,47.1s8.2-18.3,18.3-18.3
	c1.9,0,3.5-1.6,3.5-3.5C28.8,15.2,37,7,47.1,7c9,0,16.5,6.5,18,15.1c-12.1,1.8-21.5,12.3-21.5,25c0,1.9,1.6,3.5,3.5,3.5
	c1.9,0,3.5-1.6,3.5-3.5c0-10.1,8.2-18.3,18.3-18.3c10.1,0,18.3,8.2,18.3,18.3s-8.2,18.3-18.3,18.3c-1.9,0-3.5,1.6-3.5,3.5
	c0,1.9,1.6,3.5,3.5,3.5c13.9,0,25.3-11.3,25.3-25.3C94.1,34.2,84.5,23.6,72.1,22z"/>
</svg>
