<?xml version="1.0" encoding="utf-8"?>
<!-- Generator: Adobe Illustrator 18.1.1, SVG Export Plug-In . SVG Version: 6.00 Build 0)  -->
<svg version="1.1" id="Ebene_2" xmlns="http://www.w3.org/2000/svg" xmlns:xlink="http://www.w3.org/1999/xlink" x="0px" y="0px"
	 viewBox="0 0 100 100" enable-background="new 0 0 100 100" xml:space="preserve">
<g>
	<g>
		<g>
			<path fill="#FADE0A" d="M79.1,82.6c-0.9,0-1.8-0.3-2.5-1L69,74c-1.4-1.4-1.4-3.6,0-4.9c1.4-1.4,3.6-1.4,4.9,0l7.6,7.6
				c1.4,1.4,1.4,3.6,0,4.9C80.9,82.2,80,82.6,79.1,82.6z"/>
		</g>
		<g>
			<path fill="#FADE0A" d="M47.8,17.7C47.8,17.7,47.8,17.7,47.8,17.7c-1.9,0-3.5-1.6-3.5-3.5l0-10.7c0-1.9,1.6-3.5,3.5-3.5
				c0,0,0,0,0,0c1.9,0,3.5,1.6,3.5,3.5l0,10.7C51.3,16.2,49.7,17.7,47.8,17.7z"/>
		</g>
		<g>
			<path fill="#FADE0A" d="M71.5,27.5c-0.9,0-1.8-0.3-2.5-1c-1.4-1.4-1.4-3.6,0-4.9l7.6-7.6c1.4-1.4,3.6-1.4,5,0
				c1.4,1.4,1.4,3.6,0,5L74,26.5C73.3,27.2,72.4,27.5,71.5,27.5z"/>
		</g>
		<g>
			
				<path fill="#FADE0A" stroke="#000000" stroke-width="7" stroke-linecap="round" stroke-linejoin="round" stroke-miterlimit="10" d="
				M14.2,47.8"/>
		</g>
		<g>
			
				<path fill="#FADE0A" stroke="#000000" stroke-width="7" stroke-linecap="round" stroke-linejoin="round" stroke-miterlimit="10" d="
				M81.3,47.8"/>
		</g>
		<g>
			<path fill="#FADE0A" d="M92,51.3H81.3c-1.9,0-3.5-1.6-3.5-3.5c0-1.9,1.6-3.5,3.5-3.5H92c1.9,0,3.5,1.6,3.5,3.5
				C95.5,49.7,94,51.3,92,51.3z"/>
		</g>
	</g>
	<g>
		<g>
			<path fill="#FADE0A" d="M24,27.5c-0.9,0-1.8-0.3-2.5-1L14,18.9c-1.4-1.4-1.4-3.6,0-4.9c1.4-1.4,3.6-1.4,4.9,0l7.6,7.6
				c1.4,1.4,1.4,3.6,0,4.9C25.8,27.2,24.9,27.5,24,27.5z"/>
		</g>
		<g>
			<path fill="#FADE0A" d="M47.8,95.5c-1.9,0-3.5-1.6-3.5-3.5V81.3c0-1.9,1.6-3.5,3.5-3.5c1.9,0,3.5,1.6,3.5,3.5V92
				C51.3,94,49.7,95.5,47.8,95.5z"/>
		</g>
		<g>
			<path fill="#FADE0A" d="M16.5,82.6c-0.9,0-1.8-0.3-2.5-1c-1.4-1.4-1.4-3.6,0-4.9l7.6-7.6c1.4-1.4,3.6-1.4,4.9,0
				c1.4,1.4,1.4,3.6,0,4.9l-7.6,7.6C18.3,82.2,17.4,82.6,16.5,82.6z"/>
		</g>
		<g>
			
				<path fill="#FADE0A" stroke="#000000" stroke-width="7" stroke-linecap="round" stroke-linejoin="round" stroke-miterlimit="10" d="
				M81.3,47.8"/>
		</g>
		<g>
			
				<path fill="#FADE0A" stroke="#000000" stroke-width="7" stroke-linecap="round" stroke-linejoin="round" stroke-miterlimit="10" d="
				M14.2,47.8"/>
		</g>
		<g>
			<path fill="#FADE0A" d="M14.2,51.3H3.5c-1.9,0-3.5-1.6-3.5-3.5c0-1.9,1.6-3.5,3.5-3.5h10.7c1.9,0,3.5,1.6,3.5,3.5
				C17.7,49.7,16.2,51.3,14.2,51.3z"/>
		</g>
	</g>
	<g>
		<path fill="#FADE0A" d="M47.8,73c-13.9,0-25.3-11.3-25.3-25.3c0-13.9,11.3-25.3,25.3-25.3S73,33.8,73,47.8
			C73,61.7,61.7,73,47.8,73z M47.8,29.5c-10.1,0-18.3,8.2-18.3,18.3c0,10.1,8.2,18.3,18.3,18.3S66,57.8,66,47.8
			C66,37.7,57.8,29.5,47.8,29.5z"/>
	</g>
</g>
</svg>
