<?xml version="1.0" encoding="utf-8"?>
<!-- Generator: Adobe Illustrator 18.1.1, SVG Export Plug-In . SVG Version: 6.00 Build 0)  -->
<svg version="1.1" id="Ebene_2" xmlns="http://www.w3.org/2000/svg" xmlns:xlink="http://www.w3.org/1999/xlink" x="0px" y="0px"
	 viewBox="0 0 36 36" enable-background="new 0 0 36 36" xml:space="preserve">
<g>
	<path fill="#4577BB" d="M1.9,31.8c-0.1,0-0.3,0-0.5-0.1c-0.6-0.3-0.9-1-0.7-1.7l2.4-5.8c0.3-0.6,1-0.9,1.7-0.7s0.9,1,0.7,1.7
		l-2.4,5.8C2.9,31.5,2.4,31.8,1.9,31.8z"/>
</g>
<g>
	<path fill="#4577BB" d="M7.1,34.7c-0.1,0-0.3,0-0.5-0.1c-0.6-0.3-0.9-1-0.7-1.7l2.4-5.8c0.3-0.6,1-0.9,1.7-0.7
		c0.6,0.3,0.9,1,0.7,1.7l-2.4,5.8C8,34.4,7.6,34.7,7.1,34.7z"/>
</g>
<g>
	<path fill="#4577BB" d="M14.5,31.8c-0.1,0-0.3,0-0.5-0.1c-0.6-0.3-0.9-1-0.7-1.7l2.4-5.8c0.3-0.6,1-0.9,1.7-0.7
		c0.6,0.3,0.9,1,0.7,1.7L15.7,31C15.5,31.5,15,31.8,14.5,31.8z"/>
</g>
<path fill="#737373" d="M25.8,6.8C24.7,2.9,21.2,0,17,0c-4.6,0-8.4,3.5-9,7.9C3.5,8.5,0,12.3,0,17c0,0.7,0.6,1.3,1.3,1.3
	s1.3-0.6,1.3-1.3c0-3.6,3-6.6,6.6-6.6c0.7,0,1.3-0.6,1.3-1.3c0-3.6,3-6.6,6.6-6.6c2.9,0,5.3,1.8,6.2,4.4c0.6-0.1,1.1-0.1,1.7-0.1
	C25.2,6.8,25.5,6.8,25.8,6.8z"/>
<path fill="#FADE0A" d="M33.5,17.6c-0.2-0.3-0.6-0.4-0.9-0.4c-0.1,0-0.1,0-0.2,0c-0.2,0-0.3,0-0.5,0c-1.9,0-3.4-1.5-3.4-3.4
	c0-1,0.4-2,1.2-2.6c0.3-0.3,0.5-0.7,0.4-1.1c0-0.4-0.3-0.8-0.6-1c-1.1-0.7-2.3-1.1-3.6-1.2c-0.4,0-0.7-0.1-1.1-0.1
	c-0.5,0-1,0-1.4,0.1c-3.9,0.6-7,3.8-7.6,7.7H17c0.5,0,1,0,1.4,0.1c0.5-3.1,3.2-5.4,6.5-5.4c0.7,0,1.4,0.1,2,0.3
	c-0.6,0.9-0.9,2-0.9,3.1c0,2.9,2.1,5.3,4.9,5.8c-0.9,2-2.7,3.4-4.9,3.8c0.1,0.4,0.1,0.9,0.1,1.4c0,0.7-0.5,1.2-1.2,1.3c0,0,0,0,0,0
	c4.4,0,8.1-3.1,8.9-7.4C33.9,18.3,33.8,17.8,33.5,17.6z"/>
<path fill="#737373" d="M26,23.4c0-0.2-0.1-0.4-0.1-0.5c0-0.2-0.1-0.4-0.1-0.5c-0.8-3.1-3.2-5.5-6.3-6.3c-0.2,0-0.3-0.1-0.5-0.1
	c-0.2,0-0.4-0.1-0.5-0.1c-0.5-0.1-0.9-0.1-1.4-0.1h-1.1h-0.5h-0.5H9.1c-0.7,0-1.3,0.6-1.3,1.3c0,0.7,0.6,1.3,1.3,1.3h5.9h0.7H17
	c0.4,0,0.8,0,1.2,0.1c0.2,0,0.4,0.1,0.6,0.1c2.2,0.6,3.9,2.4,4.5,4.6c0.1,0.2,0.1,0.4,0.1,0.6c0.1,0.4,0.1,0.7,0.1,1.1
	c0,0.7,0.6,1.3,1.3,1.3c0,0,0,0,0,0c0.7,0,1.2-0.6,1.2-1.3C26.1,24.3,26,23.9,26,23.4z"/>
</svg>
