<?xml version="1.0" encoding="utf-8"?>
<!-- Generator: Adobe Illustrator 18.1.1, SVG Export Plug-In . SVG Version: 6.00 Build 0)  -->
<svg version="1.1" id="Ebene_1" xmlns="http://www.w3.org/2000/svg" xmlns:xlink="http://www.w3.org/1999/xlink" x="0px" y="0px"
	 viewBox="0 0 600 100" enable-background="new 0 0 600 100" xml:space="preserve">
<path fill="#FAFAFA" d="M0,0v100h600V0H0z M78,42.6L65.4,76.3c-0.5,1.4-1.8,2.3-3.3,2.3s-2.7-0.9-3.3-2.3l-9.4-25l-9.4,25
	c-0.5,1.4-1.8,2.3-3.3,2.3s-2.7-0.9-3.3-2.3L21,42.6c-0.7-1.8,0.2-3.8,2-4.5c1.8-0.7,3.8,0.2,4.5,2l9.4,25l9.4-25
	c0.5-1.4,1.8-2.3,3.3-2.3c1.4,0,2.7,0.9,3.3,2.3l9.4,25l9.4-25c0.7-1.8,2.7-2.7,4.5-2C77.8,38.8,78.7,40.8,78,42.6z M115.6,61.7
	H98.8c-1.9,0-3.5-1.6-3.5-3.5s1.6-3.5,3.5-3.5h12.9c-1.5-5.7-6.7-9.9-12.9-9.9c-7.4,0-13.4,6-13.4,13.4c0,7.4,6,13.4,13.4,13.4h9.3
	c1.9,0,3.5,1.6,3.5,3.5c0,1.9-1.6,3.5-3.5,3.5h-9.3c-11.2,0-20.3-9.1-20.3-20.3s9.1-20.3,20.3-20.3c11.2,0,20.3,9.1,20.3,20.3
	C119.1,60.1,117.5,61.7,115.6,61.7z M130.2,70.7c0.2,0.2,0.8,0.9,2.7,0.9c1.9,0,3.5,1.6,3.5,3.5c0,1.9-1.6,3.5-3.5,3.5
	c-4.1,0-6.5-1.7-7.8-3.1c-2.9-3.1-2.9-7.4-2.9-8.3V41.4c0,0,0,0,0,0s0,0,0,0V24.5c0-1.9,1.6-3.5,3.5-3.5c1.9,0,3.5,1.6,3.5,3.5v13.4
	h3.7c1.9,0,3.5,1.6,3.5,3.5c0,1.9-1.6,3.5-3.5,3.5h-3.7v22.3c0,0.1,0,0.2,0,0.2C129.1,67.9,129.2,69.7,130.2,70.7z M147.7,70.7
	c0.2,0.2,0.8,0.9,2.7,0.9c1.9,0,3.5,1.6,3.5,3.5c0,1.9-1.6,3.5-3.5,3.5c-4.1,0-6.5-1.7-7.8-3.1c-2.9-3.1-2.9-7.4-2.9-8.3V41.4
	c0,0,0,0,0,0s0,0,0,0V24.5c0-1.9,1.6-3.5,3.5-3.5c1.9,0,3.5,1.6,3.5,3.5v13.4h3.7c1.9,0,3.5,1.6,3.5,3.5c0,1.9-1.6,3.5-3.5,3.5h-3.7
	v22.3c0,0.1,0,0.2,0,0.2C146.6,68,146.8,69.7,147.7,70.7z M191.1,61.7h-16.8c-1.9,0-3.5-1.6-3.5-3.5s1.6-3.5,3.5-3.5h12.9
	c-1.5-5.7-6.7-9.9-12.9-9.9c-7.4,0-13.4,6-13.4,13.4c0,7.4,6,13.4,13.4,13.4h9.3c1.9,0,3.5,1.6,3.5,3.5c0,1.9-1.6,3.5-3.5,3.5h-9.3
	c-11.2,0-20.3-9.1-20.3-20.3s9.1-20.3,20.3-20.3s20.3,9.1,20.3,20.3C194.6,60.1,193.1,61.7,191.1,61.7z M205.4,58.2V75
	c0,1.9-1.6,3.5-3.5,3.5c-1.9,0-3.5-1.6-3.5-3.5V58.2c0-11.2,9.1-20.3,20.3-20.3h2.2c1.9,0,3.5,1.6,3.5,3.5c0,1.9-1.6,3.5-3.5,3.5
	h-2.2C211.4,44.8,205.4,50.8,205.4,58.2z M224.7,78.9c-2.1,0-3.9-1.7-3.9-3.9c0-2.1,1.7-3.9,3.9-3.9c2.1,0,3.9,1.7,3.9,3.9
	C228.6,77.2,226.9,78.9,224.7,78.9z M360.7,75c0,1.9-1.6,3.5-3.5,3.5c-1.9,0-3.5-1.6-3.5-3.5V55.9c0-6.1-4.9-11-11-11
	c-6.1,0-11,4.9-11,11V75c0,1.9-1.6,3.5-3.5,3.5c-1.9,0-3.5-1.6-3.5-3.5V55.9v0v0c0-6.1-4.9-11-11-11c-3.2,0-6.3,1.5-8.4,3.9
	c1.5,2.8,2.4,6.1,2.4,9.5c0,11.2-9.1,20.3-20.3,20.3c-1.9,0-3.5-1.6-3.5-3.5c0-1.9,1.6-3.5,3.5-3.5c7.4,0,13.4-6,13.4-13.4
	c0-7.4-6-13.4-13.4-13.4c-7.4,0-13.4,6-13.4,13.4c0,1.9-1.6,3.5-3.5,3.5c-1.9,0-3.5-1.6-3.5-3.5c0-9.9,7.1-18.1,16.5-19.9
	c-1.4-5.9-6.7-10.3-13-10.3c-7.4,0-13.4,6-13.4,13.4c0,1.9-1.6,3.5-3.5,3.5c-7.4,0-13.4,6-13.4,13.4c0,7.4,6,13.4,13.4,13.4h9.3
	c1.9,0,3.5,1.6,3.5,3.5c0,1.9-1.6,3.5-3.5,3.5h-9.3c-11.2,0-20.3-9.1-20.3-20.3c0-10.1,7.4-18.5,17.1-20.1
	c1.5-9.7,10-17.1,20.1-17.1c10.1,0,18.5,7.4,20,17.1c4,0.6,7.6,2.4,10.4,5c3.3-3.3,7.9-5.3,12.7-5.3c6,0,11.2,2.9,14.5,7.4
	c3.3-4.5,8.5-7.4,14.5-7.4c9.9,0,18,8.1,18,18V75z"/>
</svg>
