<?xml version="1.0" encoding="utf-8"?>
<!-- Generator: Adobe Illustrator 18.1.1, SVG Export Plug-In . SVG Version: 6.00 Build 0)  -->
<svg version="1.1" id="Ebene_1" xmlns="http://www.w3.org/2000/svg" xmlns:xlink="http://www.w3.org/1999/xlink" x="0px" y="0px"
	 viewBox="0 0 100 100" enable-background="new 0 0 100 100" xml:space="preserve">
<path fill="#737373" d="M72.1,22C70.5,9.6,59.9,0,47.1,0C34.2,0,23.6,9.6,22,22C9.6,23.6,0,34.2,0,47.1c0,1.9,1.6,3.5,3.5,3.5
	S7,49,7,47.1C7,37,15.2,28.8,25.3,28.8c1.9,0,3.5-1.6,3.5-3.5C28.8,15.2,37,7,47.1,7c9,0,16.5,6.5,18,15.1
	c-12.1,1.8-21.5,12.3-21.5,25c0,1.9,1.6,3.5,3.5,3.5c1.9,0,3.5-1.6,3.5-3.5c0-10.1,8.2-18.3,18.3-18.3c10.1,0,18.3,8.2,18.3,18.3
	c0,10.1-8.2,18.3-18.3,18.3c-1.9,0-3.5,1.6-3.5,3.5s1.6,3.5,3.5,3.5c13.9,0,25.3-11.3,25.3-25.3C94.1,34.2,84.5,23.6,72.1,22z"/>
<g>
	<path fill="#2D70BA" d="M11.2,65.3c-1.9,0-3.5,1.6-3.5,3.5c0,1.9,1.6,3.5,3.5,3.5c1.9,0,3.5-1.6,3.5-3.5
		C14.7,66.9,13.1,65.3,11.2,65.3L11.2,65.3z"/>
</g>
<g>
	<path fill="#2D70BA" d="M4.5,81.4c-1.9,0-3.5,1.6-3.5,3.5c0,1.9,1.6,3.5,3.5,3.5c1.9,0,3.5-1.6,3.5-3.5C8,83,6.5,81.4,4.5,81.4
		L4.5,81.4z"/>
</g>
<g>
	<path fill="#2D70BA" d="M25.4,73.4c-1.9,0-3.5,1.6-3.5,3.5s1.6,3.5,3.5,3.5s3.5-1.6,3.5-3.5S27.3,73.4,25.4,73.4L25.4,73.4z"/>
</g>
<g>
	<path fill="#2D70BA" d="M18.7,89.4c-1.9,0-3.5,1.6-3.5,3.5s1.6,3.5,3.5,3.5s3.5-1.6,3.5-3.5S20.7,89.4,18.7,89.4L18.7,89.4z"/>
</g>
<g>
	<path fill="#2D70BA" d="M46.2,65.3c-1.9,0-3.5,1.6-3.5,3.5c0,1.9,1.6,3.5,3.5,3.5c1.9,0,3.5-1.6,3.5-3.5
		C49.7,66.9,48.1,65.3,46.2,65.3L46.2,65.3z"/>
</g>
<g>
	<path fill="#2D70BA" d="M39.6,81.4c-1.9,0-3.5,1.6-3.5,3.5c0,1.9,1.6,3.5,3.5,3.5c1.9,0,3.5-1.6,3.5-3.5
		C43.1,83,41.5,81.4,39.6,81.4L39.6,81.4z"/>
</g>
</svg>
