<?xml version="1.0" encoding="utf-8"?>
<!-- Generator: Adobe Illustrator 18.1.1, SVG Export Plug-In . SVG Version: 6.00 Build 0)  -->
<svg version="1.1" id="Ebene_2" xmlns="http://www.w3.org/2000/svg" xmlns:xlink="http://www.w3.org/1999/xlink" x="0px" y="0px"
	 viewBox="0 0 100 100" enable-background="new 0 0 100 100" xml:space="preserve">
<g>
	<path fill="#737373" d="M68.9,72.4c-1.9,0-3.5-1.6-3.5-3.5s1.6-3.5,3.5-3.5c10.1,0,18.3-8.2,18.3-18.3c0-10.1-8.2-18.3-18.3-18.3
		S50.6,37,50.6,47.1c0,1.9-1.6,3.5-3.5,3.5s-3.5-1.6-3.5-3.5c0-13.9,11.3-25.3,25.3-25.3s25.3,11.3,25.3,25.3
		C94.1,61,82.8,72.4,68.9,72.4z"/>
</g>
<g>
	<path fill="#737373" d="M3.5,50.6C1.6,50.6,0,49,0,47.1C0,34.2,9.6,23.6,22,22C23.6,9.6,34.2,0,47.1,0C61,0,72.4,11.3,72.4,25.3
		c0,1.9-1.6,3.5-3.5,3.5s-3.5-1.6-3.5-3.5C65.4,15.2,57.1,7,47.1,7C37,7,28.8,15.2,28.8,25.3c0,1.9-1.6,3.5-3.5,3.5
		C15.2,28.8,7,37,7,47.1C7,49,5.4,50.6,3.5,50.6z"/>
</g>
<g>
	<path fill="#2D70BA" d="M12.1,89.7c-1.9,0-3.5-1.6-3.5-3.5V68.9c0-1.9,1.6-3.5,3.5-3.5s3.5,1.6,3.5,3.5v17.4
		C15.6,88.2,14,89.7,12.1,89.7z"/>
</g>
<g>
	<path fill="#2D70BA" d="M29.6,98.4L29.6,98.4c-1.9,0-3.5-1.6-3.5-3.5l0-17.4c0-1.9,1.6-3.5,3.5-3.5l0,0c1.9,0,3.5,1.6,3.5,3.5
		l0,17.4C33.1,96.9,31.5,98.4,29.6,98.4z"/>
</g>
<g>
	<path fill="#2D70BA" d="M47.1,89.7L47.1,89.7c-1.9,0-3.5-1.6-3.5-3.5l0-17.4c0-1.9,1.6-3.5,3.5-3.5l0,0c1.9,0,3.5,1.6,3.5,3.5
		l0,17.4C50.6,88.2,49,89.7,47.1,89.7z"/>
</g>
</svg>
